<svg width="40" height="40" viewBox="0 0 40 40" fill="none" xmlns="http://www.w3.org/2000/svg">
<g clip-path="url(#clip0_185_326)">
<path d="M21.6673 13.3342L6.02899 29.0308C5.70291 29.3547 5.44411 29.74 5.26752 30.1643C5.09092 30.5886 5 31.0437 5 31.5033C5 31.963 5.09092 32.418 5.26752 32.8424C5.44411 33.2667 5.70291 33.6519 6.02899 33.9758C6.68795 34.6313 7.57957 34.9992 8.50899 34.9992C9.43841 34.9992 10.33 34.6313 10.989 33.9758L26.6673 18.3342" stroke="#2E3E89" stroke-width="1.5" stroke-linecap="round" stroke-linejoin="round"/>
<path d="M14.9998 5.00073H22.6432C23.0852 5.00083 23.509 5.17648 23.8215 5.48907L34.5115 16.1791C34.8241 16.4916 34.9997 16.9154 34.9998 17.3574V25.0007C34.9998 25.8848 34.6486 26.7326 34.0235 27.3578C33.3984 27.9829 32.5506 28.3341 31.6665 28.3341C30.7824 28.3341 29.9346 27.9829 29.3095 27.3578C28.6844 26.7326 28.3332 25.8848 28.3332 25.0007V20.0007L19.9998 11.6674H14.9998C14.1158 11.6674 13.2679 11.3162 12.6428 10.6911C12.0177 10.066 11.6665 9.21812 11.6665 8.33407C11.6665 7.45001 12.0177 6.60216 12.6428 5.97704C13.2679 5.35192 14.1158 5.00073 14.9998 5.00073Z" stroke="#2E3E89" stroke-width="1.5" stroke-linecap="round" stroke-linejoin="round"/>
</g>
<defs>
<clipPath id="clip0_185_326">
<rect width="40" height="40" fill="white" transform="translate(0 0.000732422)"/>
</clipPath>
</defs>
</svg>
