<svg width="40" height="40" viewBox="0 0 40 40" fill="none" xmlns="http://www.w3.org/2000/svg">
<g clip-path="url(#clip0_185_80)">
<path d="M5 28.3341C5 29.2181 5.35119 30.066 5.97631 30.6911C6.60143 31.3162 7.44928 31.6674 8.33333 31.6674C9.21739 31.6674 10.0652 31.3162 10.6904 30.6911C11.3155 30.066 11.6667 29.2181 11.6667 28.3341C11.6667 27.45 11.3155 26.6022 10.6904 25.977C10.0652 25.3519 9.21739 25.0007 8.33333 25.0007C7.44928 25.0007 6.60143 25.3519 5.97631 25.977C5.35119 26.6022 5 27.45 5 28.3341Z" stroke="#2E3E89" stroke-width="1.5" stroke-linecap="round" stroke-linejoin="round"/>
<path d="M25 28.3341C25 29.2181 25.3512 30.066 25.9763 30.6911C26.6014 31.3162 27.4493 31.6674 28.3333 31.6674C29.2174 31.6674 30.0652 31.3162 30.6904 30.6911C31.3155 30.066 31.6667 29.2181 31.6667 28.3341C31.6667 27.45 31.3155 26.6022 30.6904 25.977C30.0652 25.3519 29.2174 25.0007 28.3333 25.0007C27.4493 25.0007 26.6014 25.3519 25.9763 25.977C25.3512 26.6022 25 27.45 25 28.3341Z" stroke="#2E3E89" stroke-width="1.5" stroke-linecap="round" stroke-linejoin="round"/>
<path d="M11.6665 30.0008H24.9998M31.6665 30.0008H34.9998V20.0008M34.9998 20.0008C34.9998 17.7906 34.1219 15.671 32.5591 14.1082C30.9963 12.5454 28.8766 11.6674 26.6665 11.6674H24.9998L27.4998 20.0008H34.9998Z" stroke="#2E3E89" stroke-width="1.5" stroke-linecap="round" stroke-linejoin="round"/>
<path d="M20 30.0008V11.6674H25" stroke="#2E3E89" stroke-width="1.5" stroke-linecap="round" stroke-linejoin="round"/>
<path d="M5 28.3341V20.0007H20" stroke="#2E3E89" stroke-width="1.5" stroke-linecap="round" stroke-linejoin="round"/>
<path d="M6.6665 20.0007V10.0007L36.6665 5.00073V8.33407" stroke="#2E3E89" stroke-width="1.5" stroke-linecap="round" stroke-linejoin="round"/>
<path d="M13.3332 20.0007V13.3341L6.6665 10.0007" stroke="#2E3E89" stroke-width="1.5" stroke-linecap="round" stroke-linejoin="round"/>
</g>
<defs>
<clipPath id="clip0_185_80">
<rect width="40" height="40" fill="white" transform="translate(0 0.000732422)"/>
</clipPath>
</defs>
</svg>
