<svg width="41" height="40" viewBox="0 0 41 40" fill="none" xmlns="http://www.w3.org/2000/svg">
<g clip-path="url(#clip0_185_230)">
<path d="M5.5 25.0008C5.5 26.7689 6.20238 28.4646 7.45262 29.7148C8.70286 30.9651 10.3986 31.6674 12.1667 31.6674C13.9348 31.6674 15.6305 30.9651 16.8807 29.7148C18.131 28.4646 18.8333 26.7689 18.8333 25.0008C18.8333 23.2327 18.131 21.537 16.8807 20.2867C15.6305 19.0365 13.9348 18.3341 12.1667 18.3341C10.3986 18.3341 8.70286 19.0365 7.45262 20.2867C6.20238 21.537 5.5 23.2327 5.5 25.0008Z" stroke="#2E3E89" stroke-width="1.5" stroke-linecap="round" stroke-linejoin="round"/>
<path d="M12.1665 25.0007V25.017" stroke="#2E3E89" stroke-width="1.5" stroke-linecap="round" stroke-linejoin="round"/>
<path d="M28.8335 28.3341C28.8335 29.2181 29.1847 30.066 29.8098 30.6911C30.4349 31.3162 31.2828 31.6674 32.1668 31.6674C33.0509 31.6674 33.8987 31.3162 34.5239 30.6911C35.149 30.066 35.5002 29.2181 35.5002 28.3341C35.5002 27.45 35.149 26.6022 34.5239 25.977C33.8987 25.3519 33.0509 25.0007 32.1668 25.0007C31.2828 25.0007 30.4349 25.3519 29.8098 25.977C29.1847 26.6022 28.8335 27.45 28.8335 28.3341Z" stroke="#2E3E89" stroke-width="1.5" stroke-linecap="round" stroke-linejoin="round"/>
<path d="M18 28.3341H28.8333" stroke="#2E3E89" stroke-width="1.5" stroke-linecap="round" stroke-linejoin="round"/>
<path d="M33.8335 25.3341V18.3341C33.8335 17.8921 33.6579 17.4682 33.3453 17.1556C33.0328 16.843 32.6089 16.6674 32.1668 16.6674H22.1668L18.8335 8.33411H8.8335V19.1674" stroke="#2E3E89" stroke-width="1.5" stroke-linecap="round" stroke-linejoin="round"/>
<path d="M30.4998 8.33411H28.8332C28.3911 8.33411 27.9672 8.5097 27.6547 8.82226C27.3421 9.13482 27.1665 9.55875 27.1665 10.0008V16.6674" stroke="#2E3E89" stroke-width="1.5" stroke-linecap="round" stroke-linejoin="round"/>
</g>
<defs>
<clipPath id="clip0_185_230">
<rect width="40" height="40" fill="white" transform="translate(0.5 0.000732422)"/>
</clipPath>
</defs>
</svg>
