<svg width="41" height="40" viewBox="0 0 41 40" fill="none" xmlns="http://www.w3.org/2000/svg">
<g clip-path="url(#clip0_185_305)">
<path d="M3.8335 25.0007C3.8335 23.6746 4.36028 22.4029 5.29796 21.4652C6.23564 20.5275 7.50741 20.0007 8.8335 20.0007H28.8335C30.1596 20.0007 31.4313 20.5275 32.369 21.4652C33.3067 22.4029 33.8335 23.6746 33.8335 25.0007C33.8335 26.3268 33.3067 27.5986 32.369 28.5363C31.4313 29.4739 30.1596 30.0007 28.8335 30.0007H8.8335C7.50741 30.0007 6.23564 29.4739 5.29796 28.5363C4.36028 27.5986 3.8335 26.3268 3.8335 25.0007Z" stroke="#2E3E89" stroke-width="1.5" stroke-linecap="round" stroke-linejoin="round"/>
<path d="M10.5 20.0007L12.1667 11.6674H20.5L25.5 20.0007" stroke="#2E3E89" stroke-width="1.5" stroke-linecap="round" stroke-linejoin="round"/>
<path d="M35.5005 15.0007H22.5005" stroke="#2E3E89" stroke-width="1.5" stroke-linecap="round" stroke-linejoin="round"/>
</g>
<defs>
<clipPath id="clip0_185_305">
<rect width="40" height="40" fill="white" transform="translate(0.5 0.000732422)"/>
</clipPath>
</defs>
</svg>
