<svg width="50" height="50" viewBox="0 0 50 50" fill="none" xmlns="http://www.w3.org/2000/svg">
<circle cx="25" cy="25" r="25" fill="white"/>
<g clip-path="url(#clip0_666_823)">
<path d="M19.1667 18.3333H22.5L24.1667 22.5L22.0833 23.75C22.9758 25.5596 24.4404 27.0242 26.25 27.9166L27.5 25.8333L31.6667 27.5V30.8333C31.6667 31.2753 31.4911 31.6993 31.1785 32.0118C30.866 32.3244 30.442 32.5 30 32.5C26.7494 32.3024 23.6835 30.9221 21.3807 28.6193C19.0779 26.3165 17.6975 23.2506 17.5 20C17.5 19.558 17.6756 19.134 17.9882 18.8215C18.3007 18.5089 18.7246 18.3333 19.1667 18.3333Z" stroke="#2E3E89" stroke-linecap="round" stroke-linejoin="round"/>
<path d="M27.5 20.8333C27.942 20.8333 28.366 21.0089 28.6785 21.3215C28.9911 21.634 29.1667 22.058 29.1667 22.5" stroke="#2E3E89" stroke-linecap="round" stroke-linejoin="round"/>
<path d="M27.5 17.5C28.8261 17.5 30.0979 18.0268 31.0355 18.9645C31.9732 19.9021 32.5 21.1739 32.5 22.5" stroke="#2E3E89" stroke-linecap="round" stroke-linejoin="round"/>
</g>
<defs>
<clipPath id="clip0_666_823">
<rect width="20" height="20" fill="white" transform="translate(15 15)"/>
</clipPath>
</defs>
</svg>
