<svg width="40" height="40" viewBox="0 0 40 40" fill="none" xmlns="http://www.w3.org/2000/svg">
<circle cx="20" cy="20" r="19.5" fill="white" stroke="#F2F2F2"/>
<g clip-path="url(#clip0_74_4734)">
<path d="M19.9336 14.6513L22.069 18.5258H21.1621L19.9211 16.274L18.6341 18.5258H17.7192L19.9336 14.6513Z" fill="#091520"/>
<path d="M14.5103 20.1239V19.3248H25.3446V20.1239H20.3238V23.1871H21.645V23.9861H18.2098V23.1871H19.531V20.1239H14.5103Z" fill="#091520"/>
<path fill-rule="evenodd" clip-rule="evenodd" d="M19.9275 27.9816C24.3058 27.9816 27.855 24.4041 27.855 19.9908C27.855 15.5776 24.3058 12 19.9275 12C15.5493 12 12 15.5776 12 19.9908C12 24.4041 15.5493 27.9816 19.9275 27.9816ZM24.8428 25.2038C23.5632 26.43 21.8326 27.1825 19.9275 27.1825C17.9599 27.1825 16.1783 26.3798 14.8875 25.0813L17.2641 20.923H16.3492L14.3317 24.453C13.3681 23.2268 12.7928 21.6766 12.7928 19.9908C12.7928 16.0189 15.9871 12.7991 19.9275 12.7991C23.868 12.7991 27.0623 16.0189 27.0623 19.9908C27.0623 21.7405 26.4424 23.3443 25.412 24.5911L23.3903 20.923H22.4834L24.8428 25.2038Z" fill="#091520"/>
</g>
<defs>
<clipPath id="clip0_74_4734">
<rect width="16" height="16" fill="white" transform="translate(12 12)"/>
</clipPath>
</defs>
</svg>
