<svg width="549" height="549" viewBox="0 0 549 549" fill="none" xmlns="http://www.w3.org/2000/svg">
<g opacity="0.025" clip-path="url(#clip0_575_18796)">
<path d="M272.093 90.9272L345.332 223.809H314.229L271.664 146.58L227.526 223.809H196.148L272.093 90.9272Z" fill="#091520"/>
<path d="M86.0935 278.63V251.224H457.678V278.63H285.479V383.687H330.794V411.093H212.976V383.687H258.291V278.63H86.0935Z" fill="#091520"/>
<path fill-rule="evenodd" clip-rule="evenodd" d="M271.89 548.12C422.051 548.12 543.778 425.421 543.778 274.061C543.778 122.701 422.051 0 271.89 0C121.729 0 0 122.701 0 274.061C0 425.421 121.729 548.12 271.89 548.12ZM440.468 452.848C396.581 494.905 337.226 520.714 271.89 520.714C204.406 520.714 143.302 493.181 99.0337 448.647L180.542 306.032H149.164L79.9715 427.098C46.9231 385.045 27.189 331.876 27.189 274.061C27.189 137.837 136.746 27.4061 271.89 27.4061C407.035 27.4061 516.589 137.837 516.589 274.061C516.589 334.069 495.33 389.073 459.989 431.836L390.652 306.032H359.549L440.468 452.848Z" fill="#091520"/>
</g>
<defs>
<clipPath id="clip0_575_18796">
<rect width="548.75" height="548.75" fill="white"/>
</clipPath>
</defs>
</svg>
