<svg width="169" height="40" viewBox="0 0 169 40" fill="none" xmlns="http://www.w3.org/2000/svg">
<g clip-path="url(#clip0_74_5748)">
<path d="M19.8337 6.62793L25.1723 16.3141H22.9051L19.8024 10.6847L16.5851 16.3141H14.2979L19.8337 6.62793Z" fill="#F2F2F2"/>
<path d="M6.27539 20.3102V18.3125H33.3612V20.3102H20.8092V27.9681H24.1123V29.9658H15.5242V27.9681H18.8273V20.3102H6.27539Z" fill="#F2F2F2"/>
<path fill-rule="evenodd" clip-rule="evenodd" d="M19.8189 39.954C30.7645 39.954 39.6376 31.0101 39.6376 19.9771C39.6376 8.94407 30.7645 0 19.8189 0C8.87322 0 0 8.94407 0 19.9771C0 31.0101 8.87322 39.954 19.8189 39.954ZM32.107 33.0094C28.9079 36.075 24.5814 37.9564 19.8189 37.9564C14.8997 37.9564 10.4457 35.9494 7.21886 32.7032L13.1602 22.3075H10.873L5.82936 31.1324C3.42036 28.067 1.98189 24.1914 1.98189 19.9771C1.98189 10.0474 9.96779 1.99771 19.8189 1.99771C29.6699 1.99771 37.6557 10.0474 37.6557 19.9771C37.6557 24.3513 36.1061 28.3607 33.53 31.4778L28.4758 22.3075H26.2086L32.107 33.0094Z" fill="#F2F2F2"/>
<path fill-rule="evenodd" clip-rule="evenodd" d="M93.5704 5.4834H93.467L83.9637 5.50313V6.54631C83.9637 7.1427 84.4255 7.60852 85.0175 7.60922H85.0188L93.8799 7.64627C94.7871 7.7916 95.4889 8.58426 95.4889 9.5426C95.4889 10.5216 94.7845 11.3124 93.8803 11.4575L83.9637 11.4966V12.5388C83.9637 12.5479 83.9638 12.5589 83.9641 12.5711V18.5176C83.9641 18.5226 83.9641 18.5273 83.9641 18.5318C83.9638 18.5384 83.9637 18.5445 83.9637 18.5499V19.5942H84.5016C86.917 19.5942 88.9153 19.6011 90.4806 19.6065L90.5571 19.6067L90.5597 19.6068C91.5308 19.6101 92.333 19.6129 92.9607 19.6129H94.346C96.564 19.6129 98.3746 17.7883 98.3746 15.5537C98.3746 14.2033 97.7318 12.958 96.6214 12.2056C97.2556 11.4619 97.5987 10.5281 97.5987 9.5426C97.5987 7.30988 95.8087 5.4834 93.5704 5.4834ZM121.396 5.4834H121.396L112.03 5.50313V6.45325C112.03 7.07609 112.518 7.60849 113.176 7.60922H113.177L121.688 7.64624C122.595 7.7916 123.297 8.58426 123.297 9.5426C123.297 10.5216 122.593 11.3124 121.688 11.4575L112.03 11.4967V19.5942H113.122C113.715 19.5942 114.196 19.1096 114.196 18.5128V13.6017H120.161L122.766 18.7804L122.768 18.7846C123.033 19.2895 123.574 19.5942 124.13 19.5942H125.6L122.486 13.4526C124.209 12.9697 125.425 11.363 125.425 9.5426C125.425 7.30799 123.614 5.4834 121.396 5.4834ZM159.316 5.4834C157.094 5.4834 155.305 7.31173 155.305 9.5426C155.305 11.7939 157.096 13.6017 159.316 13.6017H160.445V12.5574C160.445 11.9577 160.445 11.4945 160.445 11.4945L159.046 11.4609C158.129 11.4609 157.416 10.5294 157.416 9.5426C157.416 8.57242 158.135 7.77199 159.059 7.64115L159.254 7.61351L159.331 7.60922H166.98C167.541 7.60922 168.036 7.15649 168.036 6.54631V5.50323L159.316 5.4834H159.316ZM139.327 5.50201C139.327 5.50201 139.327 5.98112 139.327 6.56492V19.5942H141.493C141.493 19.5942 141.493 19.1282 141.493 18.5313V5.50201H139.327ZM164.543 11.4945H163.432V12.5574C163.432 13.1415 163.432 13.6203 163.432 13.6203H164.543C165.594 13.6203 166.461 14.4943 166.461 15.5537C166.461 16.5625 165.677 17.4054 164.688 17.487H156.546C155.953 17.487 155.49 17.9526 155.49 18.5499V19.5913L156.025 19.5942C159.443 19.6129 161.882 19.6129 163.305 19.6129H164.543C166.761 19.6129 168.572 17.7884 168.572 15.5537C168.572 13.319 166.761 11.4945 164.543 11.4945ZM86.1316 17.487V13.6017H91.3724C91.8912 13.6017 93.6015 13.6018 94.6303 13.6558C95.5512 13.7789 96.2645 14.5852 96.2645 15.5537C96.2645 16.6132 95.3971 17.487 94.346 17.487H86.1316ZM60.306 5.48505H62.6559L69.9008 19.6132H68.3342H68.3207C67.7287 19.6132 67.1873 19.2768 66.9213 18.7437L64.3481 13.5865H60.8934H59.1834L56.4404 18.7767C56.1682 19.2916 55.6365 19.6132 55.0577 19.6132H54.8232H53.6484L56.7467 13.4823C56.7467 13.4823 57.2019 12.5005 57.4023 12.2097C57.7358 11.7256 58.295 11.4655 58.8794 11.4654L63.2895 11.4646L60.306 5.48505Z" fill="#F2F2F2"/>
<path d="M166.894 32.6663H165.729V32.1924H166.894C167.12 32.1924 167.302 32.1562 167.442 32.0837C167.582 32.0113 167.684 31.9107 167.747 31.7819C167.813 31.6531 167.846 31.5063 167.846 31.3412C167.846 31.1903 167.813 31.0485 167.747 30.9157C167.684 30.7829 167.582 30.6762 167.442 30.5957C167.302 30.5132 167.12 30.472 166.894 30.472H165.864V34.3897H165.286V29.9951H166.894C167.223 29.9951 167.502 30.0524 167.729 30.1672C167.957 30.2818 168.13 30.4408 168.248 30.644C168.365 30.8452 168.424 31.0756 168.424 31.3352C168.424 31.6169 168.365 31.8574 168.248 32.0566C168.13 32.2558 167.957 32.4077 167.729 32.5123C167.502 32.615 167.223 32.6663 166.894 32.6663Z" fill="#F2F2F2"/>
<path d="M157.181 29.9951H157.756V32.9681C157.756 33.2981 157.683 33.5728 157.537 33.792C157.391 34.0115 157.198 34.1765 156.956 34.2872C156.717 34.3956 156.456 34.4502 156.175 34.4502C155.879 34.4502 155.612 34.3956 155.372 34.2872C155.135 34.1765 154.946 34.0115 154.806 33.792C154.668 33.5728 154.6 33.2981 154.6 32.9681V29.9951H155.172V32.9681C155.172 33.1976 155.214 33.3867 155.297 33.5355C155.381 33.6846 155.498 33.795 155.648 33.8674C155.799 33.9401 155.975 33.9761 156.175 33.9761C156.376 33.9761 156.552 33.9401 156.702 33.8674C156.853 33.795 156.971 33.6846 157.055 33.5355C157.139 33.3867 157.181 33.1976 157.181 32.9681V29.9951Z" fill="#F2F2F2"/>
<path d="M147.199 32.0534V32.3311C147.199 32.6611 147.158 32.9569 147.076 33.2185C146.994 33.48 146.876 33.7024 146.723 33.8856C146.569 34.0687 146.384 34.2086 146.169 34.3051C145.955 34.4016 145.716 34.4499 145.45 34.4499C145.192 34.4499 144.956 34.4016 144.74 34.3051C144.527 34.2086 144.341 34.0687 144.183 33.8856C144.028 33.7024 143.907 33.48 143.821 33.2185C143.735 32.9569 143.692 32.6611 143.692 32.3311V32.0534C143.692 31.7234 143.734 31.4286 143.818 31.169C143.904 30.9075 144.025 30.6851 144.18 30.502C144.336 30.3169 144.521 30.1761 144.734 30.0795C144.95 29.9829 145.187 29.9346 145.444 29.9346C145.71 29.9346 145.949 29.9829 146.163 30.0795C146.378 30.1761 146.563 30.3169 146.716 30.502C146.872 30.6851 146.991 30.9075 147.073 31.169C147.157 31.4286 147.199 31.7234 147.199 32.0534ZM146.627 32.3311V32.0474C146.627 31.7858 146.6 31.5544 146.546 31.3532C146.494 31.152 146.417 30.9829 146.315 30.8461C146.214 30.7093 146.089 30.6056 145.941 30.5352C145.795 30.4648 145.63 30.4296 145.444 30.4296C145.264 30.4296 145.102 30.4648 144.956 30.5352C144.812 30.6056 144.688 30.7093 144.585 30.8461C144.483 30.9829 144.404 31.152 144.348 31.3532C144.292 31.5544 144.264 31.7858 144.264 32.0474V32.3311C144.264 32.5947 144.292 32.8281 144.348 33.0313C144.404 33.2327 144.484 33.4026 144.588 33.5414C144.693 33.6783 144.818 33.7818 144.962 33.8522C145.108 33.9226 145.271 33.958 145.45 33.958C145.638 33.958 145.804 33.9226 145.95 33.8522C146.096 33.7818 146.219 33.6783 146.318 33.5414C146.42 33.4026 146.497 33.2327 146.549 33.0313C146.601 32.8281 146.627 32.5947 146.627 32.3311Z" fill="#F2F2F2"/>
<path d="M133.44 29.9951H134.883C135.211 29.9951 135.488 30.0454 135.713 30.146C135.94 30.2466 136.113 30.3955 136.231 30.5927C136.351 30.7879 136.411 31.0283 136.411 31.3141C136.411 31.5153 136.37 31.6994 136.288 31.8664C136.208 32.0314 136.092 32.1723 135.94 32.289C135.791 32.4037 135.611 32.4892 135.402 32.5455L135.24 32.6089H133.884L133.878 32.1351H134.901C135.109 32.1351 135.282 32.0988 135.42 32.0264C135.557 31.9519 135.661 31.8523 135.731 31.7276C135.801 31.6028 135.836 31.465 135.836 31.3141C135.836 31.1451 135.803 30.9972 135.737 30.8704C135.671 30.7436 135.567 30.646 135.426 30.5776C135.286 30.5072 135.105 30.472 134.883 30.472H134.018V34.3897H133.44V29.9951ZM135.988 34.3897L134.928 32.3976L135.531 32.3946L136.605 34.3533V34.3897H135.988Z" fill="#F2F2F2"/>
<path d="M125.859 32.2013V33.8102C125.805 33.8905 125.719 33.9811 125.601 34.0816C125.483 34.1801 125.321 34.2667 125.113 34.3411C124.908 34.4138 124.642 34.4499 124.317 34.4499C124.051 34.4499 123.807 34.4036 123.583 34.311C123.362 34.2165 123.169 34.0796 123.005 33.9005C122.843 33.7196 122.718 33.5001 122.628 33.2426C122.54 32.983 122.496 32.6892 122.496 32.3613V32.0202C122.496 31.6922 122.534 31.3995 122.61 31.1419C122.688 30.8843 122.802 30.666 122.951 30.4869C123.101 30.3058 123.285 30.169 123.502 30.0765C123.72 29.9819 123.969 29.9346 124.251 29.9346C124.584 29.9346 124.863 29.993 125.086 30.1096C125.312 30.2244 125.487 30.3833 125.613 30.5865C125.741 30.7898 125.823 31.0211 125.859 31.2807H125.281C125.255 31.1218 125.203 30.9769 125.125 30.8461C125.049 30.7153 124.941 30.6107 124.799 30.5322C124.657 30.4517 124.474 30.4115 124.251 30.4115C124.049 30.4115 123.875 30.4487 123.727 30.5231C123.579 30.5976 123.457 30.7043 123.362 30.8431C123.266 30.9819 123.194 31.1499 123.146 31.3471C123.1 31.5443 123.077 31.7667 123.077 32.0142V32.3613C123.077 32.6148 123.106 32.8412 123.164 33.0404C123.224 33.2396 123.309 33.4095 123.418 33.5504C123.528 33.6892 123.659 33.795 123.811 33.8674C123.964 33.9398 124.134 33.9762 124.32 33.9762C124.526 33.9762 124.692 33.959 124.82 33.9246C124.948 33.8886 125.047 33.8462 125.119 33.798C125.191 33.7477 125.246 33.7005 125.284 33.6562V32.6722H124.275V32.2013H125.859Z" fill="#F2F2F2"/>
<path d="M106.846 29.9951V34.3897H106.265L104.07 31.0002V34.3897H103.492V29.9951H104.07L106.274 33.3937V29.9951H106.846Z" fill="#F2F2F2"/>
<path d="M95.9094 32.2013V33.8102C95.8557 33.8905 95.7697 33.9811 95.652 34.0816C95.5343 34.1801 95.3716 34.2667 95.164 34.3411C94.9584 34.4138 94.6927 34.4499 94.3674 34.4499C94.1021 34.4499 93.8574 34.4036 93.6337 34.311C93.4124 34.2165 93.2195 34.0796 93.0559 33.9005C92.8942 33.7196 92.7686 33.5001 92.6787 33.2426C92.5908 32.983 92.5469 32.6892 92.5469 32.3613V32.0202C92.5469 31.6922 92.5849 31.3995 92.6607 31.1419C92.7384 30.8843 92.8522 30.666 93.0021 30.4869C93.1516 30.3058 93.3353 30.169 93.5531 30.0765C93.7705 29.9819 94.0201 29.9346 94.3015 29.9346C94.635 29.9346 94.9134 29.993 95.1371 30.1096C95.3627 30.2244 95.5382 30.3833 95.6641 30.5865C95.7917 30.7898 95.8737 31.0211 95.9094 31.2807H95.3316C95.3057 31.1218 95.2539 30.9769 95.1758 30.8461C95.1 30.7153 94.9912 30.6107 94.8495 30.5322C94.7078 30.4517 94.5251 30.4115 94.3015 30.4115C94.1001 30.4115 93.9253 30.4487 93.7777 30.5231C93.6298 30.5976 93.5081 30.7043 93.4124 30.8431C93.3166 30.9819 93.2444 31.1499 93.1966 31.3471C93.1506 31.5443 93.1277 31.7667 93.1277 32.0142V32.3613C93.1277 32.6148 93.1569 32.8412 93.2146 33.0404C93.2746 33.2396 93.3592 33.4095 93.4691 33.5504C93.579 33.6892 93.7098 33.795 93.8613 33.8674C94.0152 33.9398 94.1847 33.9762 94.3703 33.9762C94.576 33.9762 94.7429 33.959 94.8705 33.9246C94.9984 33.8886 95.0981 33.8462 95.1699 33.798C95.2417 33.7477 95.2968 33.7005 95.3345 33.6562V32.6722H94.3254V32.2013H95.9094Z" fill="#F2F2F2"/>
<path d="M85.0144 29.9951V34.3897H84.4365V29.9951H85.0144Z" fill="#F2F2F2"/>
<path d="M76.4545 33.279C76.4545 33.1762 76.4384 33.0856 76.4066 33.0072C76.3764 32.9267 76.3226 32.8543 76.2449 32.7899C76.1688 32.7255 76.0632 32.6641 75.9274 32.6057C75.7936 32.5474 75.6241 32.488 75.4184 32.4277C75.2026 32.3633 75.0082 32.2919 74.8343 32.2134C74.6608 32.1329 74.512 32.0413 74.3883 31.9387C74.2643 31.8361 74.1696 31.7184 74.1036 31.5856C74.0381 31.4528 74.0049 31.3009 74.0049 31.1298C74.0049 30.9588 74.04 30.8008 74.1099 30.656C74.1797 30.5111 74.2794 30.3853 74.4093 30.2787C74.5411 30.17 74.6976 30.0855 74.8793 30.0251C75.061 29.9648 75.2636 29.9346 75.4873 29.9346C75.8146 29.9346 76.0921 29.998 76.3197 30.1248C76.5492 30.2495 76.7237 30.4135 76.8438 30.6167C76.9635 30.8179 77.0231 31.0332 77.0231 31.2626H76.4482C76.4482 31.0976 76.4135 30.9517 76.3436 30.825C76.2738 30.6962 76.1678 30.5956 76.0261 30.5231C75.8845 30.4487 75.7047 30.4115 75.4873 30.4115C75.2817 30.4115 75.1118 30.4427 74.9783 30.505C74.8445 30.5674 74.7445 30.6519 74.6789 30.7586C74.6149 30.8652 74.5828 30.987 74.5828 31.1238C74.5828 31.2164 74.6018 31.3008 74.6399 31.3773C74.6799 31.4518 74.7405 31.5212 74.8225 31.5856C74.9062 31.65 75.0121 31.7093 75.14 31.7637C75.2695 31.818 75.4243 31.8703 75.6041 31.9206C75.8517 31.991 76.0652 32.0695 76.2449 32.156C76.4243 32.2426 76.5722 32.3402 76.688 32.4488C76.8057 32.5555 76.8926 32.6772 76.9484 32.814C77.0064 32.9488 77.0353 33.1018 77.0353 33.2727C77.0353 33.4519 76.9992 33.6138 76.9274 33.7586C76.8556 33.9038 76.7529 34.0274 76.6191 34.1299C76.4853 34.2327 76.3246 34.312 76.137 34.3686C75.9514 34.4228 75.7438 34.4499 75.5142 34.4499C75.3125 34.4499 75.1138 34.4218 74.9183 34.3652C74.7245 34.3091 74.548 34.2244 74.3883 34.112C74.2306 33.9993 74.1036 33.8605 74.0079 33.6955C73.9141 33.5282 73.8672 33.3352 73.8672 33.116H74.4421C74.4421 33.2667 74.471 33.3967 74.529 33.5051C74.5871 33.6119 74.6658 33.7005 74.7655 33.7709C74.8675 33.8413 74.9823 33.8935 75.1098 33.9279C75.2397 33.96 75.3745 33.9762 75.5142 33.9762C75.7159 33.9762 75.8864 33.9477 76.0261 33.8915C76.1659 33.8353 76.2718 33.7547 76.3436 33.6502C76.4174 33.5454 76.4545 33.4218 76.4545 33.279Z" fill="#F2F2F2"/>
<path d="M66.7924 33.916V34.3897H64.4836V33.916H66.7924ZM64.6003 29.9951V34.3897H64.0225V29.9951H64.6003ZM66.4868 31.8845V32.3584H64.4836V31.8845H66.4868ZM66.7622 29.9951V30.472H64.4836V29.9951H66.7622Z" fill="#F2F2F2"/>
<path d="M54.5537 34.3897H53.6436L53.6495 33.916H54.5537C54.8653 33.916 55.1247 33.8505 55.3323 33.7196C55.5399 33.5867 55.6957 33.4016 55.7996 33.1642C55.9052 32.9248 55.958 32.6451 55.958 32.3252V32.0566C55.958 31.8051 55.9282 31.5817 55.8685 31.3865C55.8085 31.1893 55.7206 31.0233 55.6048 30.8885C55.489 30.7517 55.3474 30.648 55.1798 30.5776C55.0138 30.5072 54.8233 30.472 54.6078 30.472H53.6256V29.9951H54.6078C54.8931 29.9951 55.1535 30.0434 55.3893 30.14C55.6248 30.2346 55.8275 30.3724 55.997 30.5535C56.1689 30.7326 56.3004 30.9499 56.3922 31.2054C56.4841 31.459 56.53 31.7447 56.53 32.0626V32.3252C56.53 32.6431 56.4841 32.9299 56.3922 33.1854C56.3004 33.439 56.1679 33.6552 55.9941 33.8343C55.8226 34.0135 55.615 34.1513 55.3713 34.2479C55.1296 34.3424 54.8574 34.3897 54.5537 34.3897ZM53.9519 29.9951V34.3897H53.374V29.9951H53.9519Z" fill="#F2F2F2"/>
</g>
<defs>
<clipPath id="clip0_74_5748">
<rect width="168.571" height="40" fill="white"/>
</clipPath>
</defs>
</svg>
