<svg width="151" height="36" viewBox="0 0 151 36" fill="none" xmlns="http://www.w3.org/2000/svg">
<g clip-path="url(#clip0_575_18857)">
<mask id="mask0_575_18857" style="mask-type:luminance" maskUnits="userSpaceOnUse" x="0" y="0" width="167" height="36">
<path d="M166.021 0.289551H0.721924V35.7107H166.021V0.289551Z" fill="white"/>
</mask>
<g mask="url(#mask0_575_18857)">
<path d="M1.21948 33.349V27.6244H3.47803C3.91222 27.6244 4.28212 27.7073 4.58773 27.8732C4.89335 28.0372 5.12628 28.2655 5.28654 28.558C5.44866 28.8487 5.52972 29.1841 5.52972 29.5643C5.52972 29.9444 5.44773 30.2799 5.28374 30.5706C5.11976 30.8613 4.88216 31.0877 4.57096 31.2498C4.26162 31.412 3.88706 31.493 3.44728 31.493H2.00774V30.5231H3.25162C3.48455 30.5231 3.67649 30.483 3.82743 30.4029C3.98024 30.3208 4.09391 30.2081 4.16845 30.0646C4.24486 29.9193 4.28306 29.7525 4.28306 29.5643C4.28306 29.3742 4.24486 29.2084 4.16845 29.0668C4.09391 28.9233 3.98024 28.8124 3.82743 28.7341C3.67462 28.654 3.48082 28.6139 3.24603 28.6139H2.42981V33.349H1.21948ZM6.92323 33.349V29.0556H8.07766V29.8047H8.12238C8.20065 29.5382 8.33203 29.3369 8.51651 29.2009C8.70098 29.063 8.91343 28.994 9.15382 28.994C9.21348 28.994 9.27771 28.9978 9.34667 29.0052C9.41562 29.0127 9.47623 29.0229 9.52841 29.036V30.0926C9.47245 30.0758 9.39515 30.0609 9.29637 30.0479C9.19758 30.0348 9.10722 30.0283 9.02528 30.0283C8.85006 30.0283 8.69358 30.0665 8.55565 30.1429C8.41961 30.2174 8.31153 30.3218 8.23139 30.456C8.15313 30.5901 8.114 30.7448 8.114 30.92V33.349H6.92323ZM12.5138 33.4329C12.0796 33.4329 11.7041 33.3406 11.3873 33.1562C11.0724 32.9698 10.8292 32.7108 10.6577 32.3791C10.4863 32.0455 10.4006 31.6588 10.4006 31.219C10.4006 30.7756 10.4863 30.388 10.6577 30.0563C10.8292 29.7227 11.0724 29.4636 11.3873 29.2791C11.7041 29.0928 12.0796 28.9996 12.5138 28.9996C12.948 28.9996 13.3225 29.0928 13.6374 29.2791C13.9542 29.4636 14.1983 29.7227 14.3698 30.0563C14.5412 30.388 14.6269 30.7756 14.6269 31.219C14.6269 31.6588 14.5412 32.0455 14.3698 32.3791C14.1983 32.7108 13.9542 32.9698 13.6374 33.1562C13.3225 33.3406 12.948 33.4329 12.5138 33.4329ZM12.5194 32.5105C12.7169 32.5105 12.8818 32.4545 13.0141 32.3428C13.1464 32.2291 13.2461 32.0744 13.3132 31.8787C13.3822 31.6831 13.4166 31.4604 13.4166 31.2107C13.4166 30.9609 13.3822 30.7383 13.3132 30.5426C13.2461 30.347 13.1464 30.1923 13.0141 30.0786C12.8818 29.965 12.7169 29.9081 12.5194 29.9081C12.32 29.9081 12.1523 29.965 12.0162 30.0786C11.882 30.1923 11.7805 30.347 11.7115 30.5426C11.6445 30.7383 11.6109 30.9609 11.6109 31.2107C11.6109 31.4604 11.6445 31.6831 11.7115 31.8787C11.7805 32.0744 11.882 32.2291 12.0162 32.3428C12.1523 32.4545 12.32 32.5105 12.5194 32.5105ZM18.3398 29.0556V29.95H15.69V29.0556H18.3398ZM16.2965 33.349V28.7453C16.2965 28.4341 16.3571 28.176 16.4782 27.971C16.6012 27.766 16.7689 27.6123 16.9813 27.5098C17.1938 27.4073 17.4351 27.3561 17.7053 27.3561C17.8879 27.3561 18.0547 27.37 18.2056 27.398C18.3584 27.4259 18.4721 27.4511 18.5466 27.4734L18.3342 28.368C18.2877 28.353 18.2299 28.3391 18.1609 28.326C18.0938 28.3129 18.0248 28.3065 17.9541 28.3065C17.7789 28.3065 17.6569 28.3474 17.5879 28.4294C17.519 28.5096 17.4845 28.6223 17.4845 28.7677V33.349H16.2965ZM21.4999 33.4329C21.0582 33.4329 20.6781 33.3434 20.3594 33.1645C20.0427 32.9838 19.7986 32.7284 19.6271 32.3986C19.4556 32.0669 19.3699 31.6747 19.3699 31.2219C19.3699 30.7802 19.4556 30.3926 19.6271 30.059C19.7986 29.7254 20.0398 29.4655 20.3511 29.2791C20.6641 29.0928 21.0312 28.9996 21.4524 28.9996C21.7356 28.9996 21.9993 29.0453 22.2434 29.1366C22.4894 29.2261 22.7037 29.3612 22.8864 29.542C23.0709 29.7227 23.2143 29.95 23.3168 30.2239C23.4193 30.4961 23.4706 30.8147 23.4706 31.1799V31.507H19.8451V30.769H22.3497C22.3497 30.5976 22.3124 30.4458 22.2378 30.3134C22.1633 30.1811 22.0599 30.0777 21.9275 30.0031C21.7971 29.9267 21.6453 29.8885 21.472 29.8885C21.2912 29.8885 21.131 29.9305 20.9912 30.0143C20.8533 30.0963 20.7452 30.2072 20.6669 30.347C20.5886 30.4849 20.5486 30.6386 20.5468 30.8082V31.5098C20.5468 31.7222 20.5859 31.9057 20.6641 32.0604C20.7442 32.2151 20.857 32.3343 21.0023 32.4182C21.1477 32.5021 21.3201 32.544 21.5195 32.544C21.6518 32.544 21.7729 32.5254 21.8828 32.4881C21.9928 32.4508 22.0869 32.3949 22.1652 32.3204C22.2434 32.2459 22.3031 32.1545 22.3441 32.0465L23.4454 32.1191C23.3895 32.3838 23.2749 32.6148 23.1016 32.8124C22.9301 33.008 22.7084 33.1608 22.4363 33.2708C22.1661 33.3789 21.8539 33.4329 21.4999 33.4329ZM28.4496 30.2799L27.3595 30.347C27.3408 30.2538 27.3008 30.1699 27.2393 30.0954C27.1778 30.019 27.0967 29.9584 26.9961 29.9137C26.8974 29.8671 26.779 29.8438 26.6411 29.8438C26.4566 29.8438 26.301 29.883 26.1743 29.9612C26.0476 30.0376 25.9842 30.1401 25.9842 30.2686C25.9842 30.3712 26.0252 30.4578 26.1072 30.5286C26.1892 30.5995 26.3299 30.6563 26.5293 30.6991L27.3064 30.8557C27.7238 30.9414 28.035 31.0793 28.24 31.2694C28.445 31.4594 28.5474 31.7092 28.5474 32.0185C28.5474 32.2999 28.4646 32.5468 28.2987 32.7592C28.1347 32.9717 27.9092 33.1375 27.6222 33.2568C27.3371 33.3742 27.0082 33.4329 26.6355 33.4329C26.0672 33.4329 25.6143 33.3145 25.277 33.0779C24.9416 32.8394 24.745 32.5151 24.6872 32.1051L25.8584 32.0436C25.8938 32.217 25.9796 32.3493 26.1156 32.4406C26.2517 32.53 26.4259 32.5747 26.6383 32.5747C26.847 32.5747 27.0147 32.5347 27.1415 32.4545C27.2701 32.3726 27.3353 32.2673 27.3371 32.1387C27.3353 32.0306 27.2896 31.9421 27.2002 31.8731C27.1107 31.8023 26.9728 31.7483 26.7865 31.711L26.0429 31.5629C25.6236 31.479 25.3115 31.3336 25.1066 31.1268C24.9034 30.92 24.8019 30.6563 24.8019 30.3358C24.8019 30.06 24.8764 29.8223 25.0255 29.623C25.1764 29.4236 25.388 29.2699 25.66 29.1618C25.9339 29.0537 26.2544 28.9996 26.6216 28.9996C27.1638 28.9996 27.5905 29.1142 27.9018 29.3434C28.2148 29.5727 28.3974 29.8848 28.4496 30.2799ZM33.4993 30.2799L32.4091 30.347C32.3905 30.2538 32.3504 30.1699 32.2889 30.0954C32.2275 30.019 32.1464 29.9584 32.0458 29.9137C31.947 29.8671 31.8287 29.8438 31.6908 29.8438C31.5063 29.8438 31.3507 29.883 31.2239 29.9612C31.0973 30.0376 31.0339 30.1401 31.0339 30.2686C31.0339 30.3712 31.0749 30.4578 31.1569 30.5286C31.2389 30.5995 31.3796 30.6563 31.5789 30.6991L32.356 30.8557C32.7735 30.9414 33.0847 31.0793 33.2896 31.2694C33.4946 31.4594 33.5972 31.7092 33.5972 32.0185C33.5972 32.2999 33.5142 32.5468 33.3483 32.7592C33.1844 32.9717 32.9589 33.1375 32.6719 33.2568C32.3868 33.3742 32.0579 33.4329 31.6852 33.4329C31.1168 33.4329 30.664 33.3145 30.3267 33.0779C29.9913 32.8394 29.7947 32.5151 29.7369 32.1051L30.9081 32.0436C30.9435 32.217 31.0292 32.3493 31.1653 32.4406C31.3013 32.53 31.4755 32.5747 31.688 32.5747C31.8967 32.5747 32.0644 32.5347 32.1911 32.4545C32.3197 32.3726 32.3849 32.2673 32.3868 32.1387C32.3849 32.0306 32.3392 31.9421 32.2498 31.8731C32.1604 31.8023 32.0225 31.7483 31.8361 31.711L31.0926 31.5629C30.6733 31.479 30.3612 31.3336 30.1562 31.1268C29.9531 30.92 29.8515 30.6563 29.8515 30.3358C29.8515 30.06 29.926 29.8223 30.0751 29.623C30.2261 29.4236 30.4376 29.2699 30.7096 29.1618C30.9835 29.0537 31.3041 28.9996 31.6712 28.9996C32.2135 28.9996 32.6402 29.1142 32.9514 29.3434C33.2645 29.5727 33.4471 29.8848 33.4993 30.2799ZM34.9766 33.349V29.0556H36.1674V33.349H34.9766ZM35.5748 28.5021C35.3978 28.5021 35.2459 28.4434 35.1192 28.326C34.9943 28.2067 34.9319 28.0642 34.9319 27.8983C34.9319 27.7344 34.9943 27.5936 35.1192 27.4763C35.2459 27.357 35.3978 27.2974 35.5748 27.2974C35.7519 27.2974 35.9028 27.357 36.0277 27.4763C36.1544 27.5936 36.2177 27.7344 36.2177 27.8983C36.2177 28.0642 36.1544 28.2067 36.0277 28.326C35.9028 28.4434 35.7519 28.5021 35.5748 28.5021ZM39.6909 33.4329C39.2567 33.4329 38.8812 33.3406 38.5644 33.1562C38.2495 32.9698 38.0063 32.7108 37.8349 32.3791C37.6634 32.0455 37.5777 31.6588 37.5777 31.219C37.5777 30.7756 37.6634 30.388 37.8349 30.0563C38.0063 29.7227 38.2495 29.4636 38.5644 29.2791C38.8812 29.0928 39.2567 28.9996 39.6909 28.9996C40.1251 28.9996 40.4996 29.0928 40.8146 29.2791C41.1314 29.4636 41.3755 29.7227 41.5469 30.0563C41.7184 30.388 41.8041 30.7756 41.8041 31.219C41.8041 31.6588 41.7184 32.0455 41.5469 32.3791C41.3755 32.7108 41.1314 32.9698 40.8146 33.1562C40.4996 33.3406 40.1251 33.4329 39.6909 33.4329ZM39.6964 32.5105C39.894 32.5105 40.0589 32.4545 40.1912 32.3428C40.3236 32.2291 40.4232 32.0744 40.4903 31.8787C40.5593 31.6831 40.5938 31.4604 40.5938 31.2107C40.5938 30.9609 40.5593 30.7383 40.4903 30.5426C40.4232 30.347 40.3236 30.1923 40.1912 30.0786C40.0589 29.965 39.894 29.9081 39.6964 29.9081C39.4971 29.9081 39.3294 29.965 39.1933 30.0786C39.0592 30.1923 38.9576 30.347 38.8887 30.5426C38.8215 30.7383 38.788 30.9609 38.788 31.2107C38.788 31.4604 38.8215 31.6831 38.8887 31.8787C38.9576 32.0744 39.0592 32.2291 39.1933 32.3428C39.3294 32.4545 39.4971 32.5105 39.6964 32.5105ZM44.3989 30.8669V33.349H43.2081V29.0556H44.3429V29.8131H44.3933C44.4883 29.5634 44.6476 29.3658 44.8712 29.2205C45.0949 29.0732 45.366 28.9996 45.6847 28.9996C45.9828 28.9996 46.2427 29.0649 46.4645 29.1953C46.6863 29.3257 46.8587 29.5121 46.9816 29.7543C47.1047 29.9947 47.1661 30.2817 47.1661 30.6153V33.349H45.9754V30.8278C45.9772 30.565 45.9101 30.36 45.7741 30.2128C45.6381 30.0637 45.4508 29.9891 45.2122 29.9891C45.052 29.9891 44.9104 30.0236 44.7874 30.0926C44.6663 30.1615 44.5712 30.2622 44.5022 30.3944C44.4352 30.5249 44.4007 30.6824 44.3989 30.8669ZM49.9587 33.4301C49.6847 33.4301 49.4406 33.3826 49.2263 33.2876C49.012 33.1907 48.8424 33.0481 48.7176 32.8599C48.5945 32.6698 48.5331 32.4331 48.5331 32.1499C48.5331 31.9113 48.5768 31.711 48.6644 31.5489C48.7521 31.3868 48.8713 31.2563 49.0222 31.1576C49.1732 31.0588 49.3446 30.9842 49.5365 30.9339C49.7304 30.8836 49.9335 30.8482 50.1459 30.8278C50.3956 30.8016 50.5969 30.7775 50.7496 30.755C50.9025 30.7309 51.0133 30.6954 51.0823 30.6488C51.1512 30.6022 51.1857 30.5333 51.1857 30.442V30.4252C51.1857 30.2482 51.1298 30.1112 51.018 30.0143C50.9081 29.9174 50.7515 29.8689 50.5485 29.8689C50.3341 29.8689 50.1636 29.9165 50.0369 30.0115C49.9102 30.1047 49.8263 30.2221 49.7853 30.3637L48.684 30.2743C48.7399 30.0134 48.8499 29.7879 49.0139 29.5979C49.1778 29.4059 49.3893 29.2587 49.6484 29.1562C49.9092 29.0518 50.2112 28.9996 50.554 28.9996C50.7925 28.9996 51.0208 29.0276 51.2389 29.0835C51.4587 29.1394 51.6534 29.2261 51.8231 29.3434C51.9945 29.4609 52.1296 29.6118 52.2284 29.7963C52.3272 29.9789 52.3765 30.1979 52.3765 30.4532V33.349H51.2472V32.7536H51.2137C51.1447 32.8878 51.0525 33.0062 50.937 33.1086C50.8214 33.2092 50.6826 33.2885 50.5204 33.3462C50.3584 33.4022 50.1711 33.4301 49.9587 33.4301ZM50.2996 32.6083C50.4748 32.6083 50.6295 32.5739 50.7637 32.5049C50.8979 32.4341 51.0031 32.3391 51.0795 32.2197C51.1559 32.1005 51.1941 31.9654 51.1941 31.8144V31.3588C51.1568 31.3831 51.1056 31.4054 51.0404 31.4259C50.9771 31.4446 50.9053 31.4623 50.8251 31.479C50.745 31.4939 50.6649 31.5079 50.5847 31.521C50.5046 31.5322 50.432 31.5424 50.3667 31.5517C50.227 31.5722 50.1049 31.6048 50.0005 31.6495C49.8962 31.6942 49.8152 31.7548 49.7574 31.8312C49.6996 31.9057 49.6707 31.9989 49.6707 32.1107C49.6707 32.2729 49.7294 32.3968 49.8468 32.4825C49.9661 32.5664 50.117 32.6083 50.2996 32.6083ZM55.1208 27.6244V33.349H53.9301V27.6244H55.1208ZM59.1559 33.349V29.0556H60.3103V29.8047H60.3551C60.4333 29.5382 60.5647 29.3369 60.7492 29.2009C60.9336 29.063 61.1461 28.994 61.3865 28.994C61.4461 28.994 61.5104 28.9978 61.5794 29.0052C61.6483 29.0127 61.7089 29.0229 61.7611 29.036V30.0926C61.7052 30.0758 61.6278 30.0609 61.529 30.0479C61.4303 30.0348 61.3399 30.0283 61.2579 30.0283C61.0827 30.0283 60.9262 30.0665 60.7883 30.1429C60.6523 30.2174 60.5441 30.3218 60.464 30.456C60.3858 30.5901 60.3467 30.7448 60.3467 30.92V33.349H59.1559ZM64.7632 33.4329C64.3215 33.4329 63.9414 33.3434 63.6227 33.1645C63.306 32.9838 63.0618 32.7284 62.8904 32.3986C62.7189 32.0669 62.6332 31.6747 62.6332 31.2219C62.6332 30.7802 62.7189 30.3926 62.8904 30.059C63.0618 29.7254 63.3031 29.4655 63.6144 29.2791C63.9274 29.0928 64.2945 28.9996 64.7157 28.9996C64.9989 28.9996 65.2626 29.0453 65.5067 29.1366C65.7527 29.2261 65.967 29.3612 66.1497 29.542C66.3341 29.7227 66.4776 29.95 66.5801 30.2239C66.6825 30.4961 66.7338 30.8147 66.7338 31.1799V31.507H63.1084V30.769H65.6129C65.6129 30.5976 65.5757 30.4458 65.5011 30.3134C65.4266 30.1811 65.3232 30.0777 65.1908 30.0031C65.0604 29.9267 64.9086 29.8885 64.7353 29.8885C64.5545 29.8885 64.3942 29.9305 64.2545 30.0143C64.1166 30.0963 64.0085 30.2072 63.9302 30.347C63.8519 30.4849 63.8119 30.6386 63.8101 30.8082V31.5098C63.8101 31.7222 63.8492 31.9057 63.9274 32.0604C64.0075 32.2151 64.1203 32.3343 64.2656 32.4182C64.411 32.5021 64.5833 32.544 64.7828 32.544C64.915 32.544 65.0362 32.5254 65.1461 32.4881C65.2561 32.4508 65.3502 32.3949 65.4285 32.3204C65.5067 32.2459 65.5664 32.1545 65.6073 32.0465L66.7087 32.1191C66.6528 32.3838 66.5382 32.6148 66.3649 32.8124C66.1934 33.008 65.9717 33.1608 65.6996 33.2708C65.4294 33.3789 65.1173 33.4329 64.7632 33.4329ZM68.1406 34.9591V29.0556H69.3146V29.7767H69.3677C69.4199 29.6612 69.4954 29.5438 69.5942 29.4245C69.6948 29.3034 69.8252 29.2028 69.9855 29.1227C70.1476 29.0406 70.3489 28.9996 70.5893 28.9996C70.9023 28.9996 71.1911 29.0816 71.4557 29.2456C71.7204 29.4078 71.9319 29.6528 72.0903 29.9808C72.2487 30.3069 72.3279 30.7159 72.3279 31.2079C72.3279 31.6868 72.2505 32.0912 72.0958 32.421C71.9431 32.749 71.7343 32.9977 71.4698 33.1674C71.207 33.335 70.9125 33.4189 70.5864 33.4189C70.3554 33.4189 70.1588 33.3807 69.9966 33.3043C69.8364 33.2279 69.705 33.1319 69.6025 33.0164C69.5 32.899 69.4218 32.7806 69.3677 32.6614H69.3314V34.9591H68.1406ZM69.3062 31.2023C69.3062 31.4576 69.3417 31.6803 69.4124 31.8703C69.4833 32.0604 69.5857 32.2085 69.72 32.3148C69.8541 32.4192 70.0172 32.4713 70.2091 32.4713C70.4029 32.4713 70.5669 32.4182 70.701 32.312C70.8352 32.2039 70.9368 32.0548 71.0057 31.8647C71.0765 31.6728 71.1119 31.452 71.1119 31.2023C71.1119 30.9545 71.0774 30.7364 71.0085 30.5482C70.9395 30.36 70.838 30.2128 70.7039 30.1066C70.5697 30.0003 70.4048 29.9473 70.2091 29.9473C70.0153 29.9473 69.8513 29.9985 69.7171 30.101C69.5848 30.2035 69.4833 30.3488 69.4124 30.5371C69.3417 30.7253 69.3062 30.947 69.3062 31.2023ZM74.9757 33.4301C74.7018 33.4301 74.4577 33.3826 74.2434 33.2876C74.0291 33.1907 73.8595 33.0481 73.7347 32.8599C73.6116 32.6698 73.5502 32.4331 73.5502 32.1499C73.5502 31.9113 73.5939 31.711 73.6815 31.5489C73.7691 31.3868 73.8884 31.2563 74.0394 31.1576C74.1903 31.0588 74.3617 30.9842 74.5537 30.9339C74.7475 30.8836 74.9506 30.8482 75.163 30.8278C75.4128 30.8016 75.614 30.7775 75.7668 30.755C75.9196 30.7309 76.0305 30.6954 76.0995 30.6488C76.1683 30.6022 76.2028 30.5333 76.2028 30.442V30.4252C76.2028 30.2482 76.1469 30.1112 76.0351 30.0143C75.9252 29.9174 75.7686 29.8689 75.5655 29.8689C75.3512 29.8689 75.1807 29.9165 75.054 30.0115C74.9273 30.1047 74.8434 30.2221 74.8024 30.3637L73.7011 30.2743C73.757 30.0134 73.867 29.7879 74.0309 29.5979C74.1949 29.4059 74.4064 29.2587 74.6655 29.1562C74.9264 29.0518 75.2283 28.9996 75.5711 28.9996C75.8096 28.9996 76.0379 29.0276 76.2559 29.0835C76.4759 29.1394 76.6706 29.2261 76.8402 29.3434C77.0116 29.4609 77.1467 29.6118 77.2455 29.7963C77.3442 29.9789 77.3936 30.1979 77.3936 30.4532V33.349H76.2644V32.7536H76.2308C76.1619 32.8878 76.0696 33.0062 75.9541 33.1086C75.8385 33.2092 75.6997 33.2885 75.5376 33.3462C75.3755 33.4022 75.1882 33.4301 74.9757 33.4301ZM75.3167 32.6083C75.492 32.6083 75.6466 32.5739 75.7807 32.5049C75.915 32.4341 76.0202 32.3391 76.0966 32.2197C76.1731 32.1005 76.2112 31.9654 76.2112 31.8144V31.3588C76.1739 31.3831 76.1227 31.4054 76.0575 31.4259C75.9941 31.4446 75.9224 31.4623 75.8422 31.479C75.7621 31.4939 75.682 31.5079 75.6018 31.521C75.5217 31.5322 75.4491 31.5424 75.3839 31.5517C75.2441 31.5722 75.122 31.6048 75.0177 31.6495C74.9133 31.6942 74.8323 31.7548 74.7745 31.8312C74.7167 31.9057 74.6878 31.9989 74.6878 32.1107C74.6878 32.2729 74.7465 32.3968 74.8639 32.4825C74.9832 32.5664 75.1341 32.6083 75.3167 32.6083ZM78.9472 33.349V29.0556H80.1377V33.349H78.9472ZM79.545 28.5021C79.3683 28.5021 79.2164 28.4434 79.0897 28.326C78.9649 28.2067 78.9025 28.0642 78.9025 27.8983C78.9025 27.7344 78.9649 27.5936 79.0897 27.4763C79.2164 27.357 79.3683 27.2974 79.545 27.2974C79.7221 27.2974 79.8732 27.357 79.9984 27.4763C80.1251 27.5936 80.1881 27.7344 80.1881 27.8983C80.1881 28.0642 80.1251 28.2067 79.9984 28.326C79.8732 28.4434 79.7221 28.5021 79.545 28.5021ZM81.7214 33.349V29.0556H82.8762V29.8047H82.921C82.9989 29.5382 83.1304 29.3369 83.3146 29.2009C83.4996 29.063 83.7113 28.994 83.9522 28.994C84.012 28.994 84.0758 28.9978 84.145 29.0052C84.2143 29.0127 84.2741 29.0229 84.3268 29.036V30.0926C84.271 30.0758 84.193 30.0609 84.0946 30.0479C83.9962 30.0348 83.9057 30.0283 83.8239 30.0283C83.6483 30.0283 83.4917 30.0665 83.3539 30.1429C83.2178 30.2174 83.1099 30.3218 83.0296 30.456C82.9517 30.5901 82.9124 30.7448 82.9124 30.92V33.349H81.7214ZM91.5819 27.6244H92.7925V31.3421C92.7925 31.7595 92.6925 32.1247 92.4934 32.4378C92.2958 32.7509 92.0187 32.995 91.663 33.1701C91.3072 33.3434 90.8924 33.4301 90.4193 33.4301C89.9439 33.4301 89.5282 33.3434 89.1725 33.1701C88.8167 32.995 88.5396 32.7509 88.342 32.4378C88.1445 32.1247 88.0461 31.7595 88.0461 31.3421V27.6244H89.2559V31.2386C89.2559 31.4567 89.3039 31.6505 89.3984 31.82C89.496 31.9896 89.6314 32.1228 89.8069 32.2197C89.9816 32.3166 90.1863 32.3651 90.4193 32.3651C90.6539 32.3651 90.8577 32.3166 91.0309 32.2197C91.2064 32.1228 91.3418 31.9896 91.4363 31.82C91.5331 31.6505 91.5819 31.4567 91.5819 31.2386V27.6244ZM95.4042 33.349H94.107L96.0835 27.6244H97.6436L99.617 33.349H98.3198L96.8856 28.9326H96.8415L95.4042 33.349ZM95.3231 31.0988H98.3867V32.0436H95.3231V31.0988ZM101.255 27.6244L102.639 31.9737H102.692L104.078 27.6244H105.42L103.446 33.349H101.886L99.9106 27.6244H101.255ZM107.714 27.6244V28.2282C107.714 28.3996 107.68 28.5748 107.614 28.7536C107.548 28.9307 107.461 29.0984 107.351 29.2568C107.24 29.4133 107.121 29.5466 106.99 29.6565L106.464 29.3463C106.558 29.199 106.64 29.036 106.711 28.8571C106.783 28.6782 106.819 28.4704 106.819 28.2337V27.6244H107.714ZM112.171 30.2799L111.081 30.347C111.063 30.2538 111.023 30.1699 110.96 30.0954C110.899 30.019 110.818 29.9584 110.718 29.9137C110.619 29.8671 110.501 29.8438 110.363 29.8438C110.178 29.8438 110.022 29.883 109.896 29.9612C109.769 30.0376 109.706 30.1401 109.706 30.2686C109.706 30.3712 109.747 30.4578 109.828 30.5286C109.91 30.5995 110.051 30.6563 110.251 30.6991L111.028 30.8557C111.445 30.9414 111.756 31.0793 111.962 31.2694C112.166 31.4594 112.269 31.7092 112.269 32.0185C112.269 32.2999 112.186 32.5468 112.02 32.7592C111.856 32.9717 111.631 33.1375 111.344 33.2568C111.059 33.3742 110.73 33.4329 110.357 33.4329C109.788 33.4329 109.336 33.3145 108.999 33.0779C108.663 32.8394 108.467 32.5151 108.409 32.1051L109.58 32.0436C109.615 32.217 109.701 32.3493 109.837 32.4406C109.973 32.53 110.147 32.5747 110.36 32.5747C110.568 32.5747 110.736 32.5347 110.863 32.4545C110.992 32.3726 111.056 32.2673 111.059 32.1387C111.056 32.0306 111.011 31.9421 110.922 31.8731C110.832 31.8023 110.694 31.7483 110.508 31.711L109.765 31.5629C109.345 31.479 109.033 31.3336 108.828 31.1268C108.625 30.92 108.523 30.6563 108.523 30.3358C108.523 30.06 108.598 29.8223 108.747 29.623C108.898 29.4236 109.109 29.2699 109.381 29.1618C109.655 29.0537 109.976 28.9996 110.343 28.9996C110.886 28.9996 111.312 29.1142 111.623 29.3434C111.936 29.5727 112.119 29.8848 112.171 30.2799ZM119.672 30.2799L118.582 30.347C118.563 30.2538 118.523 30.1699 118.462 30.0954C118.4 30.019 118.319 29.9584 118.219 29.9137C118.12 29.8671 118.001 29.8438 117.864 29.8438C117.679 29.8438 117.524 29.883 117.397 29.9612C117.27 30.0376 117.207 30.1401 117.207 30.2686C117.207 30.3712 117.248 30.4578 117.33 30.5286C117.412 30.5995 117.553 30.6563 117.752 30.6991L118.529 30.8557C118.947 30.9414 119.258 31.0793 119.462 31.2694C119.668 31.4594 119.77 31.7092 119.77 32.0185C119.77 32.2999 119.687 32.5468 119.521 32.7592C119.358 32.9717 119.132 33.1375 118.845 33.2568C118.559 33.3742 118.231 33.4329 117.858 33.4329C117.29 33.4329 116.837 33.3145 116.499 33.0779C116.164 32.8394 115.967 32.5151 115.91 32.1051L117.081 32.0436C117.117 32.217 117.202 32.3493 117.339 32.4406C117.474 32.53 117.649 32.5747 117.861 32.5747C118.07 32.5747 118.237 32.5347 118.364 32.4545C118.493 32.3726 118.558 32.2673 118.559 32.1387C118.558 32.0306 118.512 31.9421 118.422 31.8731C118.334 31.8023 118.196 31.7483 118.009 31.711L117.265 31.5629C116.847 31.479 116.534 31.3336 116.329 31.1268C116.126 30.92 116.025 30.6563 116.025 30.3358C116.025 30.06 116.099 29.8223 116.248 29.623C116.399 29.4236 116.61 29.2699 116.883 29.1618C117.157 29.0537 117.477 28.9996 117.844 28.9996C118.386 28.9996 118.813 29.1142 119.125 29.3434C119.438 29.5727 119.62 29.8848 119.672 30.2799ZM123.107 33.4329C122.664 33.4329 122.284 33.3434 121.966 33.1645C121.649 32.9838 121.405 32.7284 121.233 32.3986C121.062 32.0669 120.977 31.6747 120.977 31.2219C120.977 30.7802 121.062 30.3926 121.233 30.059C121.405 29.7254 121.647 29.4655 121.957 29.2791C122.271 29.0928 122.638 28.9996 123.059 28.9996C123.342 28.9996 123.606 29.0453 123.85 29.1366C124.096 29.2261 124.31 29.3612 124.493 29.542C124.677 29.7227 124.821 29.95 124.923 30.2239C125.026 30.4961 125.077 30.8147 125.077 31.1799V31.507H121.451V30.769H123.956C123.956 30.5976 123.919 30.4458 123.844 30.3134C123.769 30.1811 123.666 30.0777 123.534 30.0031C123.403 29.9267 123.252 29.8885 123.078 29.8885C122.897 29.8885 122.738 29.9305 122.597 30.0143C122.46 30.0963 122.352 30.2072 122.273 30.347C122.195 30.4849 122.155 30.6386 122.153 30.8082V31.5098C122.153 31.7222 122.192 31.9057 122.271 32.0604C122.351 32.2151 122.464 32.3343 122.608 32.4182C122.754 32.5021 122.926 32.544 123.126 32.544C123.258 32.544 123.379 32.5254 123.489 32.4881C123.599 32.4508 123.693 32.3949 123.772 32.3204C123.85 32.2459 123.91 32.1545 123.951 32.0465L125.052 32.1191C124.996 32.3838 124.881 32.6148 124.708 32.8124C124.537 33.008 124.315 33.1608 124.043 33.2708C123.773 33.3789 123.46 33.4329 123.107 33.4329ZM126.484 33.349V29.0556H127.638V29.8047H127.683C127.761 29.5382 127.892 29.3369 128.077 29.2009C128.262 29.063 128.474 28.994 128.714 28.994C128.774 28.994 128.839 28.9978 128.907 29.0052C128.976 29.0127 129.037 29.0229 129.089 29.036V30.0926C129.033 30.0758 128.956 30.0609 128.857 30.0479C128.758 30.0348 128.668 30.0283 128.586 30.0283C128.41 30.0283 128.254 30.0665 128.116 30.1429C127.98 30.2174 127.872 30.3218 127.792 30.456C127.714 30.5901 127.674 30.7448 127.674 30.92V33.349H126.484ZM134.467 29.0556L132.966 33.349H131.625L130.124 29.0556H131.382L132.274 32.1275H132.318L133.207 29.0556H134.467ZM135.706 33.349V29.0556H136.897V33.349H135.706ZM136.305 28.5021C136.128 28.5021 135.976 28.4434 135.85 28.326C135.725 28.2067 135.662 28.0642 135.662 27.8983C135.662 27.7344 135.725 27.5936 135.85 27.4763C135.976 27.357 136.128 27.2974 136.305 27.2974C136.482 27.2974 136.633 27.357 136.758 27.4763C136.885 27.5936 136.948 27.7344 136.948 27.8983C136.948 28.0642 136.885 28.2067 136.758 28.326C136.633 28.4434 136.482 28.5021 136.305 28.5021ZM140.421 33.4329C139.981 33.4329 139.603 33.3397 139.286 33.1533C138.971 32.9651 138.729 32.7043 138.56 32.3707C138.391 32.0371 138.308 31.6532 138.308 31.219C138.308 30.7793 138.393 30.3936 138.562 30.0619C138.734 29.7283 138.977 29.4683 139.292 29.282C139.607 29.0938 139.981 28.9996 140.415 28.9996C140.79 28.9996 141.118 29.0676 141.399 29.2037C141.681 29.3397 141.904 29.5307 142.067 29.7767C142.232 30.0227 142.322 30.3115 142.339 30.6432H141.215C141.183 30.4289 141.099 30.2566 140.963 30.1261C140.829 29.9939 140.653 29.9277 140.435 29.9277C140.251 29.9277 140.089 29.978 139.951 30.0786C139.815 30.1773 139.709 30.3218 139.633 30.5119C139.556 30.702 139.518 30.9321 139.518 31.2023C139.518 31.4762 139.555 31.7092 139.63 31.9011C139.707 32.0931 139.814 32.2393 139.951 32.3399C140.089 32.4406 140.251 32.4909 140.435 32.4909C140.571 32.4909 140.693 32.4629 140.802 32.4071C140.911 32.3511 141.001 32.2701 141.072 32.1638C141.145 32.0558 141.193 31.9263 141.215 31.7753H142.339C142.32 32.1033 142.23 32.3921 142.07 32.6419C141.911 32.8897 141.693 33.0834 141.413 33.2232C141.134 33.363 140.803 33.4329 140.421 33.4329ZM145.687 33.4329C145.246 33.4329 144.866 33.3434 144.547 33.1645C144.23 32.9838 143.986 32.7284 143.815 32.3986C143.643 32.0669 143.557 31.6747 143.557 31.2219C143.557 30.7802 143.643 30.3926 143.815 30.059C143.986 29.7254 144.227 29.4655 144.538 29.2791C144.851 29.0928 145.219 28.9996 145.64 28.9996C145.923 28.9996 146.186 29.0453 146.431 29.1366C146.677 29.2261 146.891 29.3612 147.073 29.542C147.258 29.7227 147.402 29.95 147.504 30.2239C147.606 30.4961 147.658 30.8147 147.658 31.1799V31.507H144.033V30.769H146.537C146.537 30.5976 146.5 30.4458 146.426 30.3134C146.351 30.1811 146.247 30.0777 146.115 30.0031C145.985 29.9267 145.833 29.8885 145.659 29.8885C145.479 29.8885 145.318 29.9305 145.179 30.0143C145.041 30.0963 144.932 30.2072 144.855 30.347C144.776 30.4849 144.736 30.6386 144.734 30.8082V31.5098C144.734 31.7222 144.773 31.9057 144.851 32.0604C144.932 32.2151 145.044 32.3343 145.19 32.4182C145.335 32.5021 145.508 32.544 145.707 32.544C145.839 32.544 145.96 32.5254 146.071 32.4881C146.18 32.4508 146.274 32.3949 146.352 32.3204C146.431 32.2459 146.49 32.1545 146.531 32.0465L147.633 32.1191C147.577 32.3838 147.462 32.6148 147.289 32.8124C147.118 33.008 146.896 33.1608 146.624 33.2708C146.353 33.3789 146.042 33.4329 145.687 33.4329Z" fill="white"/>
<path d="M7.14605 23.1164C5.4168 23.1164 4.14475 22.7089 3.32992 21.8941C2.51508 21.0792 2.10767 19.8072 2.10767 18.078V15.0088C2.10767 13.2705 2.51508 11.9984 3.32992 11.1927C4.14475 10.3778 5.4168 9.97039 7.14605 9.97039H12.7005V5.04063C12.7005 4.47025 12.9857 4.18506 13.5561 4.18506C14.1265 4.18506 14.4116 4.47025 14.4116 5.04063V22.2608C14.4116 22.8312 14.1265 23.1164 13.5561 23.1164C12.9857 23.1164 12.7005 22.8312 12.7005 22.2608V21.4188C12.3021 21.9711 11.7363 22.392 11.0029 22.6818C10.2696 22.9715 9.32799 23.1164 8.17817 23.1164H7.14605ZM7.14605 21.4052H8.17817C9.51808 21.4052 10.6046 21.2061 11.4375 20.8077C12.2795 20.4003 12.7005 19.7936 12.7005 18.9879V11.6815H7.14605C5.89664 11.6815 5.02749 11.9259 4.53859 12.4148C4.05874 12.8948 3.81881 13.7593 3.81881 15.0088V18.078C3.81881 19.3274 4.05874 20.1965 4.53859 20.6854C5.02749 21.1653 5.89664 21.4052 7.14605 21.4052ZM20.2168 23.1164C19.6548 23.1164 19.3738 22.8353 19.3738 22.2733V11.0063C19.3738 10.4442 19.6548 10.1632 20.2168 10.1632C20.7789 10.1632 21.0599 10.4442 21.0599 11.0063V12.7191C21.5505 11.8894 22.224 11.256 23.0804 10.8189C23.9368 10.3818 24.9404 10.1632 26.0912 10.1632C26.6533 10.1632 26.9343 10.4442 26.9343 11.0063C26.9343 11.5683 26.6533 11.8493 26.0912 11.8493C24.5211 11.8493 23.3079 12.1838 22.4515 12.8529C21.604 13.5219 21.1402 14.4542 21.0599 15.6496V22.2733C21.0599 22.8353 20.7789 23.1164 20.2168 23.1164ZM33.8932 23.1164C32.1893 23.1164 30.9359 22.7149 30.133 21.912C29.3302 21.1092 28.9287 19.8647 28.9287 18.1786V15.1277C28.9287 13.406 29.3302 12.1482 30.133 11.3542C30.9359 10.5513 32.1893 10.1543 33.8932 10.1632H36.0877C37.8005 10.1632 39.0539 10.5647 39.8479 11.3676C40.6507 12.1615 41.0522 13.4149 41.0522 15.1277V18.1519C41.0522 19.8558 40.6507 21.1092 39.8479 21.912C39.0539 22.7149 37.8005 23.1164 36.0877 23.1164H33.8932ZM30.6148 18.1786C30.6148 19.4008 30.8511 20.2483 31.324 20.7211C31.8057 21.1939 32.6621 21.4303 33.8932 21.4303H36.0877C37.3277 21.4303 38.1841 21.1939 38.6569 20.7211C39.1298 20.2394 39.3661 19.383 39.3661 18.1519V15.1277C39.3661 13.8877 39.1298 13.0313 38.6569 12.5585C38.1841 12.0857 37.3277 11.8493 36.0877 11.8493H33.8932C33.0724 11.8404 32.4212 11.9385 31.9395 12.1437C31.4667 12.3399 31.1277 12.6789 30.9225 13.1607C30.7173 13.6335 30.6148 14.2892 30.6148 15.1277V18.1786ZM46.6398 23.1164C46.0777 23.1164 45.7967 22.8353 45.7967 22.2733V11.0063C45.7967 10.4442 46.0777 10.1632 46.6398 10.1632C47.2018 10.1632 47.4828 10.4442 47.4828 11.0063V11.9965C48.3659 10.7743 49.8513 10.1632 51.9388 10.1632H52.6881C54.4009 10.1632 55.6543 10.5647 56.4483 11.3676C57.2511 12.1615 57.6526 13.4149 57.6526 15.1277V22.2733C57.6526 22.8353 57.3716 23.1164 56.8096 23.1164C56.2475 23.1164 55.9665 22.8353 55.9665 22.2733V15.1277C55.9665 13.8877 55.7257 13.0313 55.2439 12.5585C54.7711 12.0857 53.9192 11.8493 52.6881 11.8493H51.9388C50.663 11.8493 49.6282 12.0366 48.8343 12.4113C48.0403 12.786 47.5898 13.3703 47.4828 14.1643V22.2733C47.4828 22.8353 47.2018 23.1164 46.6398 23.1164ZM63.8329 17.3089V18.1786C63.8329 19.4008 64.0692 20.2483 64.5421 20.7211C65.0238 21.1939 65.8802 21.4303 67.1113 21.4303H69.3058C70.3674 21.4303 71.1391 21.3054 71.6208 21.0556C72.1114 20.8059 72.4103 20.3732 72.5173 19.7576C72.5798 19.49 72.6779 19.2893 72.8117 19.1555C72.9455 19.0217 73.1463 18.9548 73.4139 18.9548C73.6904 18.9548 73.9 19.0306 74.0428 19.1822C74.1944 19.325 74.2479 19.5391 74.2034 19.8245C74.0606 20.9397 73.5834 21.7693 72.7716 22.3135C71.9687 22.8487 70.8134 23.1164 69.3058 23.1164H67.1113C65.4074 23.1164 64.154 22.7149 63.3511 21.912C62.5483 21.1092 62.1468 19.8647 62.1468 18.1786V15.1277C62.1468 13.397 62.5483 12.1348 63.3511 11.3408C64.154 10.5379 65.4074 10.1454 67.1113 10.1632H69.3058C71.0186 10.1632 72.272 10.5647 73.066 11.3676C73.8689 12.1615 74.2703 13.4149 74.2703 15.1277V16.4658C74.2703 17.0279 73.9893 17.3089 73.4273 17.3089H63.8329ZM67.1113 11.8493C65.8802 11.8314 65.0238 12.0589 64.5421 12.5317C64.0692 13.0046 63.8329 13.8699 63.8329 15.1277V15.6228H72.5842V15.1277C72.5842 13.8877 72.3478 13.0313 71.875 12.5585C71.4022 12.0857 70.5458 11.8493 69.3058 11.8493H67.1113Z" fill="white"/>
<path d="M83.484 23.1033C81.9144 23.1033 80.7274 22.7642 79.9246 22.0863C79.131 21.4083 78.6804 20.3467 78.5734 18.9015C78.5556 18.625 78.6225 18.4109 78.7741 18.2592C78.9258 18.1075 79.1354 18.0317 79.403 18.0317C79.6703 18.0317 79.871 18.1031 80.0048 18.2458C80.1481 18.3885 80.2371 18.5938 80.2725 18.8614C80.3354 19.8159 80.607 20.4805 81.0887 20.8552C81.5705 21.2299 82.3694 21.4172 83.484 21.4172H87.3378C88.5689 21.4172 89.4166 21.1852 89.8803 20.7214C90.3533 20.2486 90.5895 19.4055 90.5895 18.1923C90.5895 16.9612 90.3486 16.1137 89.8669 15.6499C89.3946 15.177 88.5516 14.9407 87.3378 14.9407H83.7918C82.1773 14.9407 80.9911 14.5615 80.2323 13.8032C79.4743 13.036 79.0952 11.8496 79.0952 10.2438C79.0952 8.63805 79.4696 7.4605 80.2189 6.71114C80.9777 5.95287 82.1592 5.57373 83.765 5.57373H87.3244C88.7964 5.57373 89.907 5.89488 90.6564 6.53719C91.4152 7.17057 91.8473 8.16522 91.9544 9.52122C91.9811 9.78885 91.9189 10.0029 91.767 10.1635C91.6159 10.3152 91.4018 10.391 91.1247 10.391C90.8665 10.391 90.6658 10.3196 90.5226 10.1769C90.3801 10.0252 90.2951 9.8201 90.2683 9.56136C90.1975 8.69607 89.9385 8.09834 89.4922 7.76827C89.0467 7.42927 88.3241 7.25978 87.3244 7.25978H83.765C82.6236 7.25978 81.8381 7.47834 81.4099 7.91546C80.9911 8.34366 80.781 9.11978 80.781 10.2438C80.781 11.3678 80.9951 12.1529 81.4233 12.5989C81.8609 13.036 82.6504 13.2546 83.7918 13.2546H87.3378C89.0239 13.2546 90.2683 13.656 91.0712 14.4589C91.8741 15.2529 92.2755 16.4974 92.2755 18.1923C92.2755 19.8784 91.8741 21.1183 91.0712 21.9123C90.2778 22.7063 89.0333 23.1033 87.3378 23.1033H83.484ZM100.916 23.1166C99.4975 23.1166 98.4498 22.7776 97.7713 22.0997C97.0936 21.4217 96.7543 20.3735 96.7543 18.9551C96.7543 17.5277 97.0936 16.475 97.7713 15.7971C98.4498 15.1191 99.4975 14.7801 100.916 14.7801H106.871C106.835 13.6828 106.572 12.9201 106.081 12.4919C105.599 12.0637 104.77 11.8496 103.592 11.8496H102.04C100.988 11.8496 100.211 11.9521 99.7116 12.1573C99.2212 12.3536 98.9048 12.6971 98.7615 13.1877C98.6726 13.4553 98.5608 13.6516 98.427 13.7765C98.3026 13.8924 98.1106 13.9504 97.8516 13.9504C97.5753 13.9504 97.3565 13.8746 97.1959 13.723C97.0448 13.5624 96.9912 13.3483 97.0353 13.0807C97.2054 12.0637 97.7005 11.3232 98.5207 10.8594C99.3416 10.3955 100.514 10.1635 102.04 10.1635H103.592C105.305 10.1635 106.559 10.565 107.352 11.3678C108.155 12.1618 108.557 13.4152 108.557 15.128V22.2736C108.557 22.8356 108.276 23.1166 107.714 23.1166C107.152 23.1166 106.871 22.8356 106.871 22.2736V21.1764C105.987 22.4699 104.502 23.1166 102.415 23.1166H100.916ZM100.916 21.4306H102.415C103.217 21.4306 103.931 21.3458 104.556 21.1764C105.189 21.0069 105.706 20.7259 106.108 20.3333C106.519 19.9408 106.773 19.41 106.871 18.741V16.4661H100.916C99.9619 16.4661 99.3102 16.6401 98.9622 16.988C98.6143 17.3359 98.4404 17.9916 98.4404 18.9551C98.4404 19.9096 98.6143 20.5608 98.9622 20.9087C99.3102 21.2566 99.9619 21.4306 100.916 21.4306ZM118.231 22.4877C118.133 22.7197 117.999 22.8847 117.829 22.9828C117.669 23.072 117.468 23.1166 117.227 23.1166C116.781 23.1166 116.464 22.8981 116.277 22.461L111.446 11.3545C111.223 10.8192 111.375 10.4534 111.901 10.2572C112.41 10.0252 112.776 10.1724 112.998 10.6988L117.722 21.551H116.799L121.87 10.672C121.987 10.4311 122.143 10.2751 122.339 10.2037C122.535 10.1234 122.753 10.1412 122.994 10.2572C123.503 10.4892 123.641 10.8638 123.409 11.3812L118.231 22.4877ZM131.847 22.4877C131.749 22.7197 131.615 22.8847 131.446 22.9828C131.285 23.072 131.084 23.1166 130.844 23.1166C130.397 23.1166 130.081 22.8981 129.894 22.461L125.063 11.3545C124.84 10.8192 124.991 10.4534 125.518 10.2572C126.026 10.0252 126.392 10.1724 126.615 10.6988L131.339 21.551H130.415L135.487 10.672C135.603 10.4311 135.759 10.2751 135.955 10.2037C136.151 10.1234 136.37 10.1412 136.611 10.2572C137.119 10.4892 137.258 10.8638 137.026 11.3812L131.847 22.4877ZM143.363 23.1166C142.95 23.1166 142.744 22.91 142.744 22.4968V18.2364L138.306 11.2014C138.096 10.8537 138.162 10.5651 138.502 10.3355C138.857 10.1125 139.142 10.1781 139.359 10.5323L143.363 16.9081L147.476 10.5225C147.581 10.3585 147.706 10.2601 147.85 10.2273C148.001 10.1945 148.158 10.2371 148.322 10.3552C148.683 10.5717 148.745 10.8537 148.509 11.2014L143.983 18.2364V22.4968C143.983 22.91 143.776 23.1166 143.363 23.1166Z" fill="white"/>
</g>
</g>
<defs>
<clipPath id="clip0_575_18857">
<rect width="149.556" height="35.4211" fill="white" transform="translate(0.721924 0.289551)"/>
</clipPath>
</defs>
</svg>
