<svg width="170" height="40" viewBox="0 0 170 40" fill="none" xmlns="http://www.w3.org/2000/svg">
<g clip-path="url(#clip0_575_18804)">
<path d="M20.548 6.62842L25.8865 16.3146H23.6193L20.5167 10.6851L17.2993 16.3146H15.0121L20.548 6.62842Z" fill="white"/>
<path d="M6.98975 20.3097V18.312H34.0756V20.3097H21.5236V27.9676H24.8267V29.9653H16.2385V27.9676H19.5417V20.3097H6.98975Z" fill="white"/>
<path fill-rule="evenodd" clip-rule="evenodd" d="M20.5331 39.954C31.4787 39.954 40.3518 31.0101 40.3518 19.9771C40.3518 8.94407 31.4787 0 20.5331 0C9.58745 0 0.714233 8.94407 0.714233 19.9771C0.714233 31.0101 9.58745 39.954 20.5331 39.954ZM32.8212 33.0094C29.6222 36.075 25.2956 37.9564 20.5331 37.9564C15.614 37.9564 11.16 35.9494 7.93309 32.7032L13.8744 22.3075H11.5872L6.54359 31.1324C4.13459 28.067 2.69612 24.1914 2.69612 19.9771C2.69612 10.0474 10.682 1.99771 20.5331 1.99771C30.3842 1.99771 38.3699 10.0474 38.3699 19.9771C38.3699 24.3513 36.8203 28.3607 34.2442 31.4778L29.19 22.3075H26.9228L32.8212 33.0094Z" fill="white"/>
<path fill-rule="evenodd" clip-rule="evenodd" d="M94.2846 5.4834H94.1813L84.678 5.50313V6.54631C84.678 7.1427 85.1398 7.60852 85.7317 7.60922H85.733L94.5942 7.64627C95.5013 7.7916 96.2032 8.58426 96.2032 9.5426C96.2032 10.5216 95.4987 11.3124 94.5945 11.4575L84.678 11.4966V12.5388C84.678 12.5479 84.678 12.5589 84.6783 12.5711V18.5176C84.6783 18.5226 84.6783 18.5273 84.6783 18.5318C84.678 18.5384 84.678 18.5445 84.678 18.5499V19.5942H85.2158C87.6313 19.5942 89.6295 19.6011 91.1949 19.6065L91.2713 19.6067L91.2739 19.6068C92.245 19.6101 93.0472 19.6129 93.6749 19.6129H95.0602C97.2782 19.6129 99.0889 17.7883 99.0889 15.5537C99.0889 14.2033 98.4461 12.958 97.3356 12.2056C97.9699 11.4619 98.3129 10.5281 98.3129 9.5426C98.3129 7.30988 96.5229 5.4834 94.2846 5.4834ZM122.111 5.4834H122.11L112.744 5.50313V6.45325C112.744 7.07609 113.232 7.60849 113.89 7.60922H113.892L122.402 7.64624C123.309 7.7916 124.011 8.58426 124.011 9.5426C124.011 10.5216 123.307 11.3124 122.402 11.4575L112.744 11.4967V19.5942H113.836C114.429 19.5942 114.91 19.1096 114.91 18.5128V13.6017H120.875L123.48 18.7804L123.482 18.7846C123.748 19.2895 124.288 19.5942 124.844 19.5942H126.314L123.2 13.4526C124.923 12.9697 126.139 11.363 126.139 9.5426C126.139 7.30799 124.329 5.4834 122.111 5.4834ZM160.03 5.4834C157.808 5.4834 156.019 7.31173 156.019 9.5426C156.019 11.7939 157.81 13.6017 160.03 13.6017H161.159V12.5574C161.159 11.9577 161.159 11.4945 161.159 11.4945L159.76 11.4609C158.844 11.4609 158.13 10.5294 158.13 9.5426C158.13 8.57242 158.849 7.77199 159.773 7.64115L159.968 7.61351L160.045 7.60922H167.694C168.256 7.60922 168.751 7.15649 168.751 6.54631V5.50323L160.03 5.4834H160.03ZM140.041 5.50201C140.041 5.50201 140.041 5.98112 140.041 6.56492V19.5942H142.207C142.207 19.5942 142.207 19.1282 142.207 18.5313V5.50201H140.041ZM165.257 11.4945H164.146V12.5574C164.146 13.1415 164.146 13.6203 164.146 13.6203H165.257C166.308 13.6203 167.176 14.4943 167.176 15.5537C167.176 16.5625 166.391 17.4054 165.402 17.487H157.26C156.667 17.487 156.204 17.9526 156.204 18.5499V19.5913L156.739 19.5942C160.158 19.6129 162.597 19.6129 164.019 19.6129H165.257C167.475 19.6129 169.286 17.7884 169.286 15.5537C169.286 13.319 167.475 11.4945 165.257 11.4945ZM86.8458 17.487V13.6017H92.0866C92.6054 13.6017 94.3157 13.6018 95.3445 13.6558C96.2655 13.7789 96.9788 14.5852 96.9788 15.5537C96.9788 16.6132 96.1113 17.487 95.0602 17.487H86.8458ZM61.0203 5.48505H63.3701L70.6151 19.6132H69.0484H69.0349C68.443 19.6132 67.9015 19.2768 67.6355 18.7437L65.0624 13.5865H61.6076H59.8977L57.1546 18.7767C56.8824 19.2916 56.3508 19.6132 55.7719 19.6132H55.5374H54.3627L57.4609 13.4823C57.4609 13.4823 57.9161 12.5005 58.1165 12.2097C58.45 11.7256 59.0092 11.4655 59.5936 11.4654L64.0037 11.4646L61.0203 5.48505Z" fill="white"/>
<path d="M167.608 32.6663H166.444V32.1924H167.608C167.834 32.1924 168.017 32.1562 168.156 32.0837C168.296 32.0113 168.398 31.9107 168.462 31.7819C168.528 31.6531 168.561 31.5063 168.561 31.3412C168.561 31.1903 168.528 31.0485 168.462 30.9157C168.398 30.7829 168.296 30.6762 168.156 30.5957C168.017 30.5132 167.834 30.472 167.608 30.472H166.578V34.3897H166V29.9951H167.608C167.938 29.9951 168.216 30.0524 168.444 30.1672C168.671 30.2818 168.844 30.4408 168.962 30.644C169.08 30.8452 169.138 31.0756 169.138 31.3352C169.138 31.6169 169.08 31.8574 168.962 32.0566C168.844 32.2558 168.671 32.4077 168.444 32.5123C168.216 32.615 167.938 32.6663 167.608 32.6663Z" fill="white"/>
<path d="M157.895 29.9951H158.47V32.9681C158.47 33.2981 158.397 33.5728 158.251 33.792C158.105 34.0115 157.912 34.1765 157.671 34.2872C157.431 34.3956 157.17 34.4502 156.889 34.4502C156.594 34.4502 156.326 34.3956 156.087 34.2872C155.849 34.1765 155.66 34.0115 155.52 33.792C155.383 33.5728 155.314 33.2981 155.314 32.9681V29.9951H155.886V32.9681C155.886 33.1976 155.928 33.3867 156.011 33.5355C156.095 33.6846 156.212 33.795 156.362 33.8674C156.514 33.9401 156.689 33.9761 156.889 33.9761C157.09 33.9761 157.266 33.9401 157.416 33.8674C157.568 33.795 157.685 33.6846 157.769 33.5355C157.853 33.3867 157.895 33.1976 157.895 32.9681V29.9951Z" fill="white"/>
<path d="M147.913 32.0534V32.3311C147.913 32.6611 147.872 32.9569 147.79 33.2185C147.708 33.48 147.59 33.7024 147.437 33.8856C147.283 34.0687 147.099 34.2086 146.883 34.3051C146.669 34.4016 146.43 34.4499 146.164 34.4499C145.907 34.4499 145.67 34.4016 145.454 34.3051C145.241 34.2086 145.055 34.0687 144.898 33.8856C144.742 33.7024 144.621 33.48 144.535 33.2185C144.45 32.9569 144.407 32.6611 144.407 32.3311V32.0534C144.407 31.7234 144.449 31.4286 144.532 31.169C144.618 30.9075 144.739 30.6851 144.895 30.502C145.05 30.3169 145.235 30.1761 145.449 30.0795C145.664 29.9829 145.901 29.9346 146.158 29.9346C146.424 29.9346 146.663 29.9829 146.877 30.0795C147.093 30.1761 147.277 30.3169 147.431 30.502C147.587 30.6851 147.705 30.9075 147.787 31.169C147.871 31.4286 147.913 31.7234 147.913 32.0534ZM147.341 32.3311V32.0474C147.341 31.7858 147.314 31.5544 147.26 31.3532C147.208 31.152 147.131 30.9829 147.03 30.8461C146.928 30.7093 146.803 30.6056 146.655 30.5352C146.509 30.4648 146.344 30.4296 146.158 30.4296C145.979 30.4296 145.816 30.4648 145.67 30.5352C145.527 30.6056 145.403 30.7093 145.299 30.8461C145.197 30.9829 145.118 31.152 145.062 31.3532C145.006 31.5544 144.979 31.7858 144.979 32.0474V32.3311C144.979 32.5947 145.006 32.8281 145.062 33.0313C145.118 33.2327 145.198 33.4026 145.302 33.5414C145.408 33.6783 145.533 33.7818 145.676 33.8522C145.822 33.9226 145.985 33.958 146.164 33.958C146.352 33.958 146.519 33.9226 146.664 33.8522C146.81 33.7818 146.933 33.6783 147.033 33.5414C147.135 33.4026 147.211 33.2327 147.263 33.0313C147.315 32.8281 147.341 32.5947 147.341 32.3311Z" fill="white"/>
<path d="M134.155 29.9951H135.598C135.925 29.9951 136.202 30.0454 136.427 30.146C136.655 30.2466 136.828 30.3955 136.945 30.5927C137.065 30.7879 137.125 31.0283 137.125 31.3141C137.125 31.5153 137.084 31.6994 137.002 31.8664C136.922 32.0314 136.807 32.1723 136.655 32.289C136.505 32.4037 136.325 32.4892 136.116 32.5455L135.954 32.6089H134.598L134.592 32.1351H135.616C135.823 32.1351 135.996 32.0988 136.134 32.0264C136.272 31.9519 136.375 31.8523 136.445 31.7276C136.515 31.6028 136.55 31.465 136.55 31.3141C136.55 31.1451 136.517 30.9972 136.451 30.8704C136.385 30.7436 136.281 30.646 136.14 30.5776C136 30.5072 135.819 30.472 135.598 30.472H134.733V34.3897H134.155V29.9951ZM136.703 34.3897L135.643 32.3976L136.245 32.3946L137.319 34.3533V34.3897H136.703Z" fill="white"/>
<path d="M126.573 32.2013V33.8102C126.519 33.8905 126.433 33.9811 126.315 34.0816C126.198 34.1801 126.035 34.2667 125.827 34.3411C125.622 34.4138 125.356 34.4499 125.031 34.4499C124.765 34.4499 124.521 34.4036 124.297 34.311C124.076 34.2165 123.883 34.0796 123.719 33.9005C123.558 33.7196 123.432 33.5001 123.342 33.2426C123.254 32.983 123.21 32.6892 123.21 32.3613V32.0202C123.21 31.6922 123.248 31.3995 123.324 31.1419C123.402 30.8843 123.516 30.666 123.665 30.4869C123.815 30.3058 123.999 30.169 124.216 30.0765C124.434 29.9819 124.683 29.9346 124.965 29.9346C125.298 29.9346 125.577 29.993 125.8 30.1096C126.026 30.2244 126.202 30.3833 126.327 30.5865C126.455 30.7898 126.537 31.0211 126.573 31.2807H125.995C125.969 31.1218 125.917 30.9769 125.839 30.8461C125.763 30.7153 125.655 30.6107 125.513 30.5322C125.371 30.4517 125.188 30.4115 124.965 30.4115C124.763 30.4115 124.589 30.4487 124.441 30.5231C124.293 30.5976 124.171 30.7043 124.076 30.8431C123.98 30.9819 123.908 31.1499 123.86 31.3471C123.814 31.5443 123.791 31.7667 123.791 32.0142V32.3613C123.791 32.6148 123.82 32.8412 123.878 33.0404C123.938 33.2396 124.023 33.4095 124.132 33.5504C124.242 33.6892 124.373 33.795 124.525 33.8674C124.678 33.9398 124.848 33.9762 125.034 33.9762C125.24 33.9762 125.406 33.959 125.534 33.9246C125.662 33.8886 125.761 33.8462 125.833 33.798C125.905 33.7477 125.96 33.7005 125.998 33.6562V32.6722H124.989V32.2013H126.573Z" fill="white"/>
<path d="M107.56 29.9951V34.3897H106.979L104.784 31.0002V34.3897H104.206V29.9951H104.784L106.988 33.3937V29.9951H107.56Z" fill="white"/>
<path d="M96.6237 32.2013V33.8102C96.5699 33.8905 96.484 33.9811 96.3662 34.0816C96.2485 34.1801 96.0858 34.2667 95.8782 34.3411C95.6726 34.4138 95.4069 34.4499 95.0816 34.4499C94.8163 34.4499 94.5716 34.4036 94.348 34.311C94.1266 34.2165 93.9338 34.0796 93.7701 33.9005C93.6084 33.7196 93.4828 33.5001 93.3929 33.2426C93.305 32.983 93.2611 32.6892 93.2611 32.3613V32.0202C93.2611 31.6922 93.2991 31.3995 93.3749 31.1419C93.4526 30.8843 93.5664 30.666 93.7163 30.4869C93.8659 30.3058 94.0495 30.169 94.2673 30.0765C94.4847 29.9819 94.7343 29.9346 95.0157 29.9346C95.3492 29.9346 95.6277 29.993 95.8513 30.1096C96.077 30.2244 96.2524 30.3833 96.3784 30.5865C96.5059 30.7898 96.5879 31.0211 96.6237 31.2807H96.0458C96.0199 31.1218 95.9681 30.9769 95.89 30.8461C95.8143 30.7153 95.7054 30.6107 95.5637 30.5322C95.422 30.4517 95.2394 30.4115 95.0157 30.4115C94.8143 30.4115 94.6395 30.4487 94.4919 30.5231C94.344 30.5976 94.2224 30.7043 94.1266 30.8431C94.0308 30.9819 93.9587 31.1499 93.9108 31.3471C93.8649 31.5443 93.8419 31.7667 93.8419 32.0142V32.3613C93.8419 32.6148 93.8711 32.8412 93.9288 33.0404C93.9888 33.2396 94.0735 33.4095 94.1833 33.5504C94.2932 33.6892 94.4241 33.795 94.5756 33.8674C94.7294 33.9398 94.8989 33.9762 95.0846 33.9762C95.2902 33.9762 95.4571 33.959 95.5847 33.9246C95.7126 33.8886 95.8123 33.8462 95.8841 33.798C95.956 33.7477 96.0111 33.7005 96.0488 33.6562V32.6722H95.0396V32.2013H96.6237Z" fill="white"/>
<path d="M85.7286 29.9951V34.3897H85.1508V29.9951H85.7286Z" fill="white"/>
<path d="M77.1687 33.279C77.1687 33.1762 77.1526 33.0856 77.1208 33.0072C77.0906 32.9267 77.0369 32.8543 76.9591 32.7899C76.883 32.7255 76.7774 32.6641 76.6417 32.6057C76.5079 32.5474 76.3383 32.488 76.1327 32.4277C75.9169 32.3633 75.7224 32.2919 75.5486 32.2134C75.3751 32.1329 75.2262 32.0413 75.1026 31.9387C74.9786 31.8361 74.8838 31.7184 74.8179 31.5856C74.7523 31.4528 74.7192 31.3009 74.7192 31.1298C74.7192 30.9588 74.7543 30.8008 74.8241 30.656C74.894 30.5111 74.9937 30.3853 75.1235 30.2787C75.2554 30.17 75.4118 30.0855 75.5935 30.0251C75.7752 29.9648 75.9779 29.9346 76.2015 29.9346C76.5288 29.9346 76.8063 29.998 77.0339 30.1248C77.2635 30.2495 77.438 30.4135 77.558 30.6167C77.6777 30.8179 77.7374 31.0332 77.7374 31.2626H77.1625C77.1625 31.0976 77.1277 30.9517 77.0578 30.825C76.988 30.6962 76.8821 30.5956 76.7404 30.5231C76.5987 30.4487 76.419 30.4115 76.2015 30.4115C75.9959 30.4115 75.826 30.4427 75.6925 30.505C75.5587 30.5674 75.4587 30.6519 75.3931 30.7586C75.3292 30.8652 75.297 30.987 75.297 31.1238C75.297 31.2164 75.3161 31.3008 75.3541 31.3773C75.3941 31.4518 75.4548 31.5212 75.5368 31.5856C75.6204 31.65 75.7263 31.7093 75.8542 31.7637C75.9838 31.818 76.1386 31.8703 76.3183 31.9206C76.5659 31.991 76.7794 32.0695 76.9591 32.156C77.1385 32.2426 77.2864 32.3402 77.4022 32.4488C77.5199 32.5555 77.6069 32.6772 77.6626 32.814C77.7207 32.9488 77.7495 33.1018 77.7495 33.2727C77.7495 33.4519 77.7134 33.6138 77.6416 33.7586C77.5698 33.9038 77.4671 34.0274 77.3333 34.1299C77.1995 34.2327 77.0388 34.312 76.8512 34.3686C76.6656 34.4228 76.458 34.4499 76.2284 34.4499C76.0267 34.4499 75.828 34.4218 75.6325 34.3652C75.4387 34.3091 75.2623 34.2244 75.1026 34.112C74.9448 33.9993 74.8179 33.8605 74.7221 33.6955C74.6283 33.5282 74.5814 33.3352 74.5814 33.116H75.1563C75.1563 33.2667 75.1852 33.3967 75.2432 33.5051C75.3013 33.6119 75.38 33.7005 75.4797 33.7709C75.5817 33.8413 75.6965 33.8935 75.8241 33.9279C75.9539 33.96 76.0887 33.9762 76.2284 33.9762C76.4301 33.9762 76.6007 33.9477 76.7404 33.8915C76.8801 33.8353 76.986 33.7547 77.0578 33.6502C77.1316 33.5454 77.1687 33.4218 77.1687 33.279Z" fill="white"/>
<path d="M67.5066 33.916V34.3897H65.1978V33.916H67.5066ZM65.3146 29.9951V34.3897H64.7367V29.9951H65.3146ZM67.201 31.8845V32.3584H65.1978V31.8845H67.201ZM67.4765 29.9951V30.472H65.1978V29.9951H67.4765Z" fill="white"/>
<path d="M55.2679 34.3897H54.3578L54.3637 33.916H55.2679C55.5795 33.916 55.8389 33.8505 56.0465 33.7196C56.2541 33.5867 56.4099 33.4016 56.5139 33.1642C56.6195 32.9248 56.6723 32.6451 56.6723 32.3252V32.0566C56.6723 31.8051 56.6424 31.5817 56.5827 31.3865C56.5227 31.1893 56.4348 31.0233 56.319 30.8885C56.2033 30.7517 56.0616 30.648 55.894 30.5776C55.7281 30.5072 55.5375 30.472 55.322 30.472H54.3398V29.9951H55.322C55.6074 29.9951 55.8678 30.0434 56.1036 30.14C56.339 30.2346 56.5417 30.3724 56.7113 30.5535C56.8831 30.7326 57.0146 30.9499 57.1065 31.2054C57.1983 31.459 57.2442 31.7447 57.2442 32.0626V32.3252C57.2442 32.6431 57.1983 32.9299 57.1065 33.1854C57.0146 33.439 56.8821 33.6552 56.7083 33.8343C56.5368 34.0135 56.3292 34.1513 56.0855 34.2479C55.8438 34.3424 55.5716 34.3897 55.2679 34.3897ZM54.6661 29.9951V34.3897H54.0883V29.9951H54.6661Z" fill="white"/>
</g>
<defs>
<clipPath id="clip0_575_18804">
<rect width="168.571" height="40" fill="white" transform="translate(0.714233)"/>
</clipPath>
</defs>
</svg>
