<svg width="154" height="28" viewBox="0 0 154 28" fill="none" xmlns="http://www.w3.org/2000/svg">
<g clip-path="url(#clip0_575_18821)">
<path d="M0.450203 12.1859V3.86474C0.450203 2.60269 0.75884 1.64348 1.37689 0.985931C1.99455 0.328773 3.01379 0 4.43344 0H8.45579C11.1112 0 12.439 1.2756 12.439 3.82524V7.49287C12.439 7.6772 12.3337 7.76898 12.1234 7.76898H8.57428C8.36362 7.76898 8.25867 7.6772 8.25867 7.49287V4.18034C8.25867 4.04907 8.19284 3.98284 8.06157 3.98284H4.82765C4.69599 3.98284 4.63055 4.04906 4.63055 4.18034V11.7917C4.63055 11.9234 4.69599 11.9888 4.82765 11.9888H8.45578C9.9281 11.9888 10.9601 12.3044 11.5518 12.9353C12.1432 13.5661 12.439 14.5125 12.439 15.7746V24.1353C12.439 25.4236 12.1494 26.3898 11.5716 27.0338C10.9926 27.6786 9.9676 28 8.49528 28H4.51243C3.01378 28 1.96162 27.6844 1.35713 27.0536C0.75225 26.4227 0.450195 25.4763 0.450195 24.2143V20.152C0.450195 19.9685 0.55514 19.8759 0.765803 19.8759H4.31494C4.52521 19.8759 4.63055 19.9685 4.63055 20.152V23.8196C4.63055 23.9517 4.69599 24.0171 4.82765 24.0171H8.06157C8.19284 24.0171 8.25867 23.9517 8.25867 23.8196V16.1692C8.25867 16.0379 8.19284 15.9717 8.06157 15.9717H4.43344C2.93478 15.9717 1.8958 15.7292 1.31802 15.2421C0.739084 14.7561 0.450203 13.7376 0.450203 12.1859Z" fill="white"/>
<path d="M23.0475 27.803H15.7122C15.5015 27.803 15.397 27.6981 15.397 27.4874V0.512874C15.397 0.302599 15.5015 0.197266 15.7122 0.197266H23.0475C23.2577 0.197266 23.3631 0.302595 23.3631 0.512874V3.86489C23.3631 4.04922 23.2577 4.141 23.0475 4.141H19.5773V11.7919H23.0475C23.2577 11.7919 23.3631 11.8972 23.3631 12.1071V15.4595C23.3631 15.6702 23.2577 15.7747 23.0475 15.7747H19.5773V23.8198H23.0475C23.2577 23.8198 23.3631 23.9124 23.3631 24.0959V27.4874C23.3631 27.6981 23.2577 27.803 23.0475 27.803Z" fill="white"/>
<path d="M37.5994 27.803H33.6557C33.445 27.803 33.3401 27.6981 33.3401 27.4874L30.3036 16.603V27.4874C30.3036 27.6981 30.1979 27.803 29.988 27.803H26.4385C26.2278 27.803 26.1233 27.6981 26.1233 27.4874V0.512874C26.1233 0.302599 26.2278 0.197266 26.4385 0.197266H33.5372C36.1925 0.197266 37.5204 1.47286 37.5204 4.0225V12.1071C37.5204 13.2901 37.29 14.1975 36.8303 14.8283C36.3699 15.4595 35.5745 15.8278 34.4445 15.9327L37.9146 27.4874C37.9406 27.6981 37.836 27.803 37.5994 27.803ZM33.1429 4.1805H30.3036V11.989H33.1429C33.2742 11.989 33.3401 11.9235 33.3401 11.7919V4.37761C33.3401 4.24634 33.2742 4.1805 33.1429 4.1805Z" fill="white"/>
<path d="M51.7963 13.29C52.0065 13.29 52.1119 13.3825 52.1119 13.5661V24.1353C52.1119 25.4236 51.8222 26.3898 51.2444 27.0338C50.6659 27.6786 49.6405 28 48.1681 28H44.1853C42.6866 28 41.6349 27.6844 41.0304 27.0536C40.4251 26.4227 40.123 25.4763 40.123 24.2143V3.86474C40.123 2.6027 40.4321 1.64349 41.0501 0.985935C41.6674 0.328773 42.6866 0 44.1063 0H48.129C50.784 0 52.1119 1.2756 52.1119 3.82524V7.49287C52.1119 7.6772 52.0065 7.76898 51.7963 7.76898H48.2471C48.0365 7.76898 47.9315 7.6772 47.9315 7.49287V4.18034C47.9315 4.04907 47.8657 3.98284 47.7344 3.98284H44.5005C44.3688 3.98284 44.3034 4.04906 44.3034 4.18034V23.8197C44.3034 23.9517 44.3688 24.0171 44.5005 24.0171H47.7344C47.8657 24.0171 47.9315 23.9517 47.9315 23.8197V17.2337H46.5909C46.3802 17.2337 46.2753 17.1292 46.2753 16.9185V13.5661C46.2753 13.3825 46.3802 13.29 46.5909 13.29L51.7963 13.29Z" fill="white"/>
<path d="M58.9343 27.803H55.3848C55.1741 27.803 55.0696 27.6981 55.0696 27.4874V0.512874C55.0696 0.302599 55.1741 0.197266 55.3848 0.197266H58.9343C59.1442 0.197266 59.2499 0.302595 59.2499 0.512874V27.4874C59.2499 27.6981 59.1442 27.803 58.9343 27.803Z" fill="white"/>
<path d="M66.782 23.8198C66.782 23.9519 66.8475 24.0173 66.9795 24.0173H70.213C70.3443 24.0173 70.4105 23.9519 70.4105 23.8198V0.512874C70.4105 0.302599 70.5151 0.197266 70.7257 0.197266H74.3148C74.4983 0.197266 74.5905 0.302595 74.5905 0.512874V24.1354C74.5905 25.4238 74.3012 26.39 73.7231 27.034C73.1445 27.6787 72.1191 28.0002 70.6471 28.0002H66.6639C65.1652 28.0002 64.1135 27.6845 63.509 27.0537C62.9037 26.4229 62.6021 25.4765 62.6021 24.2144V0.512874C62.6021 0.302599 62.7066 0.197266 62.9173 0.197266H66.4668C66.6767 0.197266 66.782 0.302595 66.782 0.512874V23.8198Z" fill="white"/>
<path d="M77.3503 12.1859V3.86474C77.3503 2.6027 77.659 1.64349 78.277 0.985935C78.8947 0.328773 79.9139 0 81.3336 0H85.3559C88.0113 0 89.3392 1.2756 89.3392 3.82524V7.49287C89.3392 7.6772 89.2338 7.76898 89.0236 7.76898H85.4744C85.2638 7.76898 85.1588 7.6772 85.1588 7.49287V4.18034C85.1588 4.04907 85.093 3.98284 84.9617 3.98284H81.7278C81.5961 3.98284 81.5307 4.04906 81.5307 4.18034V11.7917C81.5307 11.9234 81.5961 11.9888 81.7278 11.9888H85.3559C86.8282 11.9888 87.8603 12.3044 88.452 12.9353C89.0433 13.5661 89.3392 14.5125 89.3392 15.7746V24.1353C89.3392 25.4236 89.0495 26.3898 88.4717 27.0338C87.8928 27.6786 86.8677 28 85.3954 28H81.4126C79.9139 28 78.8618 27.6844 78.2573 27.0536C77.6524 26.4227 77.3503 25.4763 77.3503 24.2143V20.152C77.3503 19.9685 77.4553 19.8759 77.6659 19.8759H81.2151C81.4254 19.8759 81.5307 19.9685 81.5307 20.152V23.8196C81.5307 23.9517 81.5961 24.0171 81.7278 24.0171H84.9617C85.093 24.0171 85.1588 23.9517 85.1588 23.8196V16.1692C85.1588 16.0379 85.093 15.9717 84.9617 15.9717H81.3336C79.8349 15.9717 78.7959 15.7292 78.2182 15.2421C77.6392 14.7561 77.3503 13.7376 77.3503 12.1859Z" fill="white"/>
<path d="M95.3337 0.197266H99.396C99.6059 0.197266 99.7116 0.302595 99.7116 0.512874L104.168 27.4874C104.168 27.6981 104.062 27.803 103.852 27.803H100.145C99.9346 27.803 99.8297 27.6981 99.8297 27.4874L98.9227 20.9015H95.6493L94.6634 27.4874C94.6634 27.6981 94.5581 27.803 94.3482 27.803H90.641C90.4304 27.803 90.3254 27.6981 90.3254 27.4874L95.0185 0.512874C95.0185 0.302599 95.1231 0.197266 95.3337 0.197266ZM97.3846 9.34679L96.241 16.9578H98.41L97.3846 9.34679Z" fill="white"/>
<path d="M109.807 27.803H106.258C106.047 27.803 105.943 27.6981 105.943 27.4874V0.512874C105.943 0.302599 106.047 0.197266 106.258 0.197266H109.807C110.017 0.197266 110.123 0.302595 110.123 0.512874V27.4874C110.123 27.6981 110.017 27.803 109.807 27.803Z" fill="white"/>
<path d="M125.148 27.803H121.205C120.994 27.803 120.889 27.6981 120.889 27.4874L117.853 16.603V27.4874C117.853 27.6981 117.747 27.803 117.537 27.803H113.988C113.777 27.803 113.672 27.6981 113.672 27.4874V0.512874C113.672 0.302599 113.777 0.197266 113.988 0.197266H121.086C123.742 0.197266 125.069 1.47286 125.069 4.0225V12.1071C125.069 13.2901 124.839 14.1975 124.379 14.8283C123.919 15.4595 123.124 15.8278 121.994 15.9327L125.464 27.4874C125.49 27.6981 125.385 27.803 125.148 27.803ZM120.692 4.1805H117.853V11.989H120.692C120.823 11.989 120.889 11.9235 120.889 11.7919V4.37761C120.889 4.24634 120.823 4.1805 120.692 4.1805Z" fill="white"/>
<path fill-rule="evenodd" clip-rule="evenodd" d="M130.392 12.4553L135.023 17.0891L139.655 12.4553L135.023 7.82146L130.392 12.4553ZM135.023 6.27686L141.199 12.4553L135.023 18.6337L128.848 12.4553L135.023 6.27686Z" fill="white"/>
<path fill-rule="evenodd" clip-rule="evenodd" d="M135.023 14L136.567 12.4554L135.023 10.9108L133.479 12.4554L135.023 14ZM131.936 12.4554L135.023 9.36621L138.111 12.4554L135.023 15.5446L131.936 12.4554Z" fill="white"/>
<path fill-rule="evenodd" clip-rule="evenodd" d="M148.918 20.1781L142.743 13.9997L136.567 20.1781L142.743 26.3565L148.918 20.1781ZM150.462 20.1781L142.743 27.9011L135.023 20.1781L142.743 12.4551L150.462 20.1781Z" fill="white"/>
<path fill-rule="evenodd" clip-rule="evenodd" d="M145.83 20.1787L142.743 17.0895L139.655 20.1787L142.743 23.2679L145.83 20.1787ZM147.374 20.1787L142.743 24.8126L138.111 20.1787L142.743 15.5449L147.374 20.1787Z" fill="white"/>
<path fill-rule="evenodd" clip-rule="evenodd" d="M144.287 20.1784L142.743 21.723L141.199 20.1784L142.743 18.6338L144.287 20.1784Z" fill="white"/>
<path fill-rule="evenodd" clip-rule="evenodd" d="M139.655 4.73245L142.743 7.82166L145.83 4.73245L142.743 1.64323L139.655 4.73245ZM138.111 4.73245L142.743 0.0986328L147.374 4.73245L142.743 9.36626L138.111 4.73245Z" fill="white"/>
<path fill-rule="evenodd" clip-rule="evenodd" d="M141.199 4.7321L142.743 3.1875L144.287 4.7321L142.743 6.27671L141.199 4.7321Z" fill="white"/>
<path fill-rule="evenodd" clip-rule="evenodd" d="M150.462 10.9108L148.918 12.4554L150.462 14L152.006 12.4554L150.462 10.9108ZM153.55 12.4554L150.462 15.5446L147.375 12.4554L150.462 9.36621L153.55 12.4554Z" fill="white"/>
</g>
<defs>
<clipPath id="clip0_575_18821">
<rect width="153.1" height="28" fill="white" transform="translate(0.450195)"/>
</clipPath>
</defs>
</svg>
