<svg width="138" height="46" viewBox="0 0 138 46" fill="none" xmlns="http://www.w3.org/2000/svg">
<g clip-path="url(#clip0_575_18841)">
<path d="M7.23242 39.8011H11.9277L9.46455 33.8945L7.23242 39.8011Z" fill="white"/>
<path d="M6.22895 42.4551L5.09424 45.4575H14.2864L13.0343 42.4551H6.22895Z" fill="white"/>
<path d="M33.8087 39.8878C33.433 39.5155 32.9289 39.3013 32.4 39.2896H31.3123V45.4574H36.6872C36.4392 44.9567 36.0071 44.0031 35.3911 42.5965C34.7747 41.1897 34.2473 40.2868 33.8087 39.8878Z" fill="white"/>
<path d="M0.348002 26.0325L0.114502 26.1792V45.4578H1.08326L7.22155 30.2617H11.6076L18.357 45.4578H20.2388V30.2617H24.0242V45.4578H27.5268V30.2617H34.3146C35.7866 30.2617 36.9831 30.6874 37.9042 31.5388C38.3436 31.9244 38.6945 32.4004 38.9329 32.9342C39.1713 33.468 39.2916 34.047 39.2856 34.6316C39.2856 36.3055 38.4154 37.5447 36.675 38.3491C37.4378 38.6962 38.1628 39.6307 38.8502 41.1528C39.5375 42.6748 40.2012 44.1098 40.8412 45.4578H42.0623V0.347656C36.4241 14.3761 20.0893 24.9228 0.348002 26.0325Z" fill="white"/>
<path d="M34.8312 36.0541C35.0189 35.898 35.1674 35.7 35.2647 35.4761C35.362 35.2521 35.4054 35.0085 35.3914 34.7647C35.3914 33.6194 34.6698 33.0466 33.2268 33.0464H31.3123V36.5053H33.3137C33.8565 36.5349 34.3928 36.3754 34.8312 36.0541Z" fill="white"/>
<path d="M59.2177 30.2603V33.0449H53.7136V45.4563H49.9282V33.0449H44.4241V30.2603H59.2177Z" fill="white"/>
<path d="M67.7407 30.2603L74.4902 45.4563H70.4196L69.1673 42.4538H62.3623L61.2276 45.4563H57.2163L63.3546 30.2603L67.7407 30.2603ZM68.0607 39.8L65.5975 33.8933L63.3654 39.8H68.0607Z" fill="white"/>
<path d="M87.0646 30.2603H90.8501V38.8862C90.8501 41.1052 90.1938 42.7876 88.8811 43.9331C87.5684 45.0791 85.6939 45.6521 83.2575 45.6521C80.8498 45.6521 78.9807 45.0719 77.6501 43.9115C76.3192 42.7513 75.6539 41.0834 75.6541 38.9078V30.2603H79.4504V38.9949C79.43 39.4689 79.5123 39.9417 79.6916 40.381C79.8709 40.8204 80.1429 41.2158 80.4891 41.5402C81.2394 42.1997 82.216 42.5428 83.214 42.4976C84.3815 42.4976 85.3152 42.1712 86.0148 41.5183C86.7147 40.8657 87.0646 39.9375 87.0646 38.7337L87.0646 30.2603Z" fill="white"/>
<path d="M94.1353 30.2603H100.923C102.395 30.2603 103.592 30.686 104.513 31.5374C104.952 31.923 105.303 32.399 105.541 32.9327C105.78 33.4665 105.9 34.0455 105.894 34.6301C105.894 36.3041 105.024 37.5433 103.283 38.3476C104.046 38.6947 104.771 39.6293 105.458 41.1513C106.146 42.6734 106.809 44.1084 107.449 45.4563H103.295C103.048 44.9556 102.616 44.002 101.999 42.5954C101.383 41.1886 100.856 40.2857 100.417 39.8867C100.041 39.5143 99.5372 39.3002 99.0084 39.2884H97.9205V45.4563H94.1353V30.2603ZM97.9205 33.0449V36.5038H99.9222C100.465 36.5334 101.001 36.3739 101.439 36.0526C101.627 35.8965 101.776 35.6986 101.873 35.4746C101.97 35.2507 102.014 35.007 102 34.7632C102 33.6179 101.278 33.0451 99.8351 33.0449L97.9205 33.0449Z" fill="white"/>
<path d="M119.818 30.2603H123.603V38.8862C123.603 41.1052 122.947 42.7876 121.634 43.9331C120.321 45.0791 118.447 45.6521 116.01 45.6521C113.603 45.6521 111.734 45.0719 110.403 43.9115C109.072 42.7513 108.407 41.0834 108.407 38.9078V30.2603H112.203V38.9949C112.183 39.4689 112.265 39.9417 112.445 40.381C112.624 40.8204 112.896 41.2158 113.242 41.5402C113.992 42.1997 114.969 42.5428 115.967 42.4976C117.134 42.4976 118.068 42.1712 118.768 41.5183C119.468 40.8657 119.818 39.9375 119.818 38.7337V30.2603Z" fill="white"/>
<path d="M137.2 31.2391V34.2087C135.184 33.3023 133.578 32.8491 132.381 32.8491C131.819 32.8224 131.259 32.9404 130.755 33.1919C130.579 33.271 130.429 33.3982 130.322 33.5589C130.215 33.7196 130.156 33.9072 130.151 34.1C130.16 34.2611 130.203 34.4183 130.279 34.561C130.354 34.7037 130.459 34.8285 130.586 34.9268C130.876 35.188 131.583 35.5252 132.707 35.9385C133.63 36.265 134.531 36.6501 135.405 37.0915C136.091 37.4566 136.687 37.9693 137.151 38.5925C137.661 39.304 137.92 40.1652 137.885 41.04C137.907 41.6879 137.773 42.3314 137.493 42.9164C137.214 43.5014 136.798 44.0106 136.281 44.4011C135.211 45.2352 133.802 45.6523 132.055 45.6523C130.131 45.6423 128.243 45.1365 126.573 44.1837V40.9097C127.418 41.4986 128.322 41.998 129.27 42.3999C130.063 42.7136 130.909 42.8723 131.761 42.8676C133.248 42.8676 133.991 42.4001 133.991 41.4651C133.984 41.2918 133.94 41.122 133.863 40.9666C133.786 40.8112 133.678 40.6736 133.545 40.5627C133.247 40.2801 132.531 39.9359 131.396 39.5299C130.473 39.2139 129.571 38.8361 128.698 38.3991C128.02 38.0383 127.433 37.5288 126.98 36.9086C126.474 36.1833 126.22 35.3116 126.257 34.4278C126.243 33.8124 126.38 33.2028 126.654 32.652C126.929 32.1012 127.334 31.6257 127.834 31.2667C128.886 30.4653 130.293 30.0646 132.055 30.0645C133.832 30.0986 135.584 30.4985 137.2 31.2391Z" fill="white"/>
<path d="M11.6076 30.2617L18.357 45.4578H14.2866L13.0344 42.4552H6.22922L5.09451 45.4578H1.08325L7.22154 30.2617L11.6076 30.2617ZM11.9277 39.8014L9.46451 33.8947L7.23236 39.8014H11.9277Z" fill="#EDE230"/>
<path d="M24.0241 30.2617V45.4578H20.2388V30.2617H24.0241Z" fill="#EDE230"/>
<path d="M27.5266 30.2617H34.3144C35.7864 30.2617 36.9829 30.6874 37.904 31.5388C38.3434 31.9245 38.6943 32.4005 38.9327 32.9342C39.1711 33.468 39.2914 34.047 39.2854 34.6316C39.2854 36.3056 38.4152 37.5447 36.6749 38.3491C37.4376 38.6962 38.1626 39.6307 38.85 41.1528C39.5373 42.6748 40.201 44.1098 40.841 45.4578H36.6871C36.439 44.9571 36.007 44.0034 35.3909 42.5969C34.7746 41.1901 34.2471 40.2872 33.8086 39.8882C33.4329 39.5158 32.9287 39.3017 32.3999 39.2899H31.3121V45.4578H27.5266V30.2617ZM31.3121 33.0464V36.5053H33.3135C33.8563 36.5349 34.3926 36.3754 34.8311 36.0541C35.0188 35.898 35.1673 35.7 35.2646 35.476C35.3619 35.2521 35.4052 35.0085 35.3912 34.7647C35.3912 33.6193 34.6697 33.0465 33.2266 33.0464L31.3121 33.0464Z" fill="#EDE230"/>
</g>
<defs>
<clipPath id="clip0_575_18841">
<rect width="137.771" height="45.3047" fill="white" transform="translate(0.114502 0.347656)"/>
</clipPath>
</defs>
</svg>
