<svg xmlns="http://www.w3.org/2000/svg" xmlns:xlink="http://www.w3.org/1999/xlink" version="1.1" x="0px" y="0px" viewBox="0 0 500 625" style="enable-background:new 0 0 500 500;" xml:space="preserve"><path d="M100.3,191.9c-6.6,0-6.6-10,0-10h32.9c6.6,0,6.6,10,0,10H100.3z M100.3,221.9c-6.6,0-6.6-10,0-10H166c6.6,0,6.6,10,0,10  H100.3z M378.5,436.8l87.9-152.2H121.5L33.6,436.8H378.5z M30,423.2l84.1-145.6c0.8-1.7,2.5-2.9,4.5-2.9h257.8v-72.8H206.4  l-23.9,54.9c-0.8,1.9-2.7,3-4.6,3v0H30V423.2z M386.4,274.6H475l0,0c3.8,0,6.2,4.1,4.3,7.5l-93.4,161.8c-1,1.4-1.6,2.7-4.5,2.9H25  c-2.7,0-5-2.2-5-5V254.7c0-2.7,2.2-5,5-5h34.5V138.6c0-1.4,0.6-2.6,1.5-3.5l47.6-47.7c1.1-1.1,2.6-1.6,4-1.4c9,0,17.9,0,26.9,0V58.2  c0-2.8,2.2-5,5-5h189.7c2.7,0,5,2.2,5,5v133.6h42.2c2.8,0,5,2.2,5,5V274.6z M69.5,249.7h105.2l23.8-54.5c0.7-2,2.6-3.4,4.7-3.4h84.7  V95.6l-170.7,0.3v42.7c0,2.7-2.2,5-5,5H69.5V249.7z M297.9,191.8h31.3V63.2H149.5v22.7l143.4-0.3c2.8,0,5,2.2,5,5l0,0V191.8z   M138,132c-6.6,0-6.6-10,0-10h64c6.6,0,6.6,10,0,10H138z M138,162c-6.6,0-6.6-10,0-10h66.6c6.6,0,6.6,10,0,10H138z M76.6,133.6  l30.6,0v-30.5L76.6,133.6z"/><text x="0" y="515" fill="#000000" font-size="5px" font-weight="bold" font-family="'Helvetica Neue', Helvetica, Arial-Unicode, Arial, Sans-serif">Created by feti hariy</text><text x="0" y="520" fill="#000000" font-size="5px" font-weight="bold" font-family="'Helvetica Neue', Helvetica, Arial-Unicode, Arial, Sans-serif">from the Noun Project</text></svg>