<svg xmlns="http://www.w3.org/2000/svg" data-name="Layer 2" viewBox="0 0 100 125" x="0px" y="0px"><title>support</title><path d="M18.75,94.75h62.5a1,1,0,0,0,1-1V79.23A30.26,30.26,0,0,0,52,49H48A30.26,30.26,0,0,0,17.75,79.23V93.75A1,1,0,0,0,18.75,94.75Zm52-2H29l-3.12-23h48ZM47.8,60.38h4.4l.64,7.37H47.16ZM80.25,79.23V92.75H72.76L76,68.88a1,1,0,0,0-.24-.79,1,1,0,0,0-.75-.34H54.85l-.69-8,1.62-1.62,2.68,6a1,1,0,0,0,.85.59h.07a1,1,0,0,0,.85-.48L66,54.71A28.24,28.24,0,0,1,80.25,79.23Zm-16-25.46-4.7,7.82L54.84,51.14A27.92,27.92,0,0,1,64.21,53.77ZM52,51h.57l2.31,5.17-2.19,2.2H47.29l-2.19-2.2L47.41,51H52Zm-6.86.14L40.49,61.59l-4.7-7.82A27.92,27.92,0,0,1,45.16,51.14ZM19.75,79.23A28.24,28.24,0,0,1,34,54.71l5.75,9.56a1,1,0,0,0,.86.48h.06a1,1,0,0,0,.85-.59l2.68-6,1.62,1.62-.69,8H24.73a1,1,0,0,0-.75.34,1,1,0,0,0-.24.79L27,92.75H19.75Z"/><path d="M28.13,35.38h3.12a1,1,0,0,0,1-1V20.75a13.52,13.52,0,0,1,13.5-13.5h8.5a13.52,13.52,0,0,1,13.5,13.5V37.5H63.38A15.92,15.92,0,0,0,66,28.75V20.33a12,12,0,0,0-12-11.95H46A12,12,0,0,0,34,20.33v8.42A16,16,0,0,0,61.82,39.5h6.93a1,1,0,0,0,1-1V35.38h2.12A4.14,4.14,0,0,0,76,31.25V25a4.13,4.13,0,0,0-4.13-4.12H69.75v-.13a15.51,15.51,0,0,0-15.5-15.5h-8.5a15.51,15.51,0,0,0-15.5,15.5v.13H28.13A4.13,4.13,0,0,0,24,25v6.25A4.14,4.14,0,0,0,28.13,35.38ZM36,20.33a10,10,0,0,1,10-9.95h8.1a10,10,0,0,1,10,9.95v3.85h0c-1,0-3.32-2-5-4a1,1,0,0,0-1.08-.3C53.3,21.45,40.77,25,36,23.85ZM50,42.75a14,14,0,0,1-14-14V25.9C42,27,54.63,23.08,57.93,22c1.28,1.42,4,4.16,6.07,4.17v2.57a13.92,13.92,0,0,1-3.09,8.75H54.5v2H59A13.89,13.89,0,0,1,50,42.75ZM71.87,22.88A2.12,2.12,0,0,1,74,25v6.25a2.13,2.13,0,0,1-2.13,2.13H69.75V22.88ZM26,25a2.12,2.12,0,0,1,2.13-2.12h2.12v10.5H28.13A2.13,2.13,0,0,1,26,31.25Z"/><path d="M50,75a6.21,6.21,0,1,0,6.21,6.21A6.22,6.22,0,0,0,50,75Zm0,10.42a4.21,4.21,0,1,1,4.21-4.21A4.22,4.22,0,0,1,50,85.46Z"/><text x="0" y="115" fill="#000000" font-size="5px" font-weight="bold" font-family="'Helvetica Neue', Helvetica, Arial-Unicode, Arial, Sans-serif">Created by Matthias Hartmann</text><text x="0" y="120" fill="#000000" font-size="5px" font-weight="bold" font-family="'Helvetica Neue', Helvetica, Arial-Unicode, Arial, Sans-serif">from the Noun Project</text></svg>