<svg xmlns="http://www.w3.org/2000/svg" data-name="Layer 1" viewBox="0 0 100 125" x="0px" y="0px"><title>35</title><g data-name="Group"><path data-name="Compound Path" d="M87.1,72.5h.4l.5-.2a1,1,0,0,0,.5-.8V40.5a1,1,0,0,0-1.4-.9l-17,7.9V44.8a9,9,0,0,0-9-9H55.8l-5.4-8.1a9,9,0,0,0-7.5-4H28.2a7,7,0,0,0-7,7v5.1h-.7a9,9,0,0,0-9,9V67.3a9,9,0,0,0,9,9H61.1a9,9,0,0,0,9-9V64.6Zm-.6-30.4V70L70.1,62.4V49.7ZM23.2,30.7a5,5,0,0,1,5-5H42.9a7,7,0,0,1,5.8,3.1l4.7,7H23.2Zm45,36.7a7,7,0,0,1-7,7H20.4a7,7,0,0,1-7-7V44.8a7,7,0,0,1,7-7H61.1a7,7,0,0,1,7,7Z"/></g><text x="0" y="115" fill="#000000" font-size="5px" font-weight="bold" font-family="'Helvetica Neue', Helvetica, Arial-Unicode, Arial, Sans-serif">Created by Guru</text><text x="0" y="120" fill="#000000" font-size="5px" font-weight="bold" font-family="'Helvetica Neue', Helvetica, Arial-Unicode, Arial, Sans-serif">from the Noun Project</text></svg>