<?xml version="1.0"?>
<svg xmlns="http://www.w3.org/2000/svg" xmlns:xlink="http://www.w3.org/1999/xlink" xmlns:svgjs="http://svgjs.com/svgjs" version="1.1" width="512" height="512" x="0" y="0" viewBox="0 0 24 24" style="enable-background:new 0 0 512 512" xml:space="preserve" class=""><g><g xmlns="http://www.w3.org/2000/svg" id="Icon"><g><path d="m22.5 4.5c0-.663-.263-1.299-.732-1.768s-1.105-.732-1.768-.732c-3.832 0-12.168 0-16 0-.663 0-1.299.263-1.768.732s-.732 1.105-.732 1.768v10c0 .663.263 1.299.732 1.768s1.105.732 1.768.732h16c.663 0 1.299-.263 1.768-.732s.732-1.105.732-1.768zm-1 0v10c0 .398-.158.779-.439 1.061-.282.281-.663.439-1.061.439h-16c-.398 0-.779-.158-1.061-.439-.281-.282-.439-.663-.439-1.061v-10c0-.398.158-.779.439-1.061.282-.281.663-.439 1.061-.439h16c.398 0 .779.158 1.061.439.281.282.439.663.439 1.061z" fill="#ffffff" data-original="#000000"/><path d="m13.964 16.314c-.076-.19-.26-.314-.464-.314h-3c-.204 0-.388.124-.464.314l-2 5c-.062.154-.043.329.05.466.093.138.248.22.414.22h7c.166 0 .321-.082.414-.22.093-.137.112-.312.05-.466zm-.803.686 1.6 4h-5.522s1.6-4 1.6-4z" fill="#ffffff" data-original="#000000"/><path d="m18 21h-12c-.276 0-.5.224-.5.5s.224.5.5.5h12c.276 0 .5-.224.5-.5s-.224-.5-.5-.5z" fill="#ffffff" data-original="#000000"/></g></g></g></svg>
